<svg height="75" viewBox="0 0 75 75" width="75" xmlns="http://www.w3.org/2000/svg"><g fill="none" fill-rule="evenodd"><rect fill="#fff" fill-rule="evenodd" height="75" rx="37.5" width="75"/><rect height="74" rx="37" stroke="#9b9b9b" width="74" x=".5" y=".5"/><g fill-rule="nonzero" stroke="#000"><path d="m57.3593768 44.4738538c-.8510548.7532393-2.0614438.4236971-2.0614438-1.0451196v-3.5308095c0-1.0639506-.8794233-1.9395914-1.9479699-1.9395914h-2.4869712c.283685.574345.4349836 1.1957675.4349836 1.81719 0 2.1749786-1.7021096 3.8226897-4.0472383 3.9168446h-.0756493-.0756493c-2.3451287-.0941549-4.0472383-1.741866-4.0472383-3.9168446 0-.630838.1512986-1.2522604.4349835-1.81719h-2.5909889-.0094562-.0378247c-1.0496342 0-1.9101451.8473943-1.9101451 1.9019294v3.5684715c0 1.4688167-1.2293014 1.7889434-2.0803562 1.0451196-1.4089684-1.2334295-3.5555177-.574345-3.6500794 1.6759575.0945617 2.2503026 2.241111 2.909387 3.6406233 1.6759576.8510547-.7532394 2.0898123-.4236971 2.0898123 1.0451196v3.4931475c0 1.0451196.8510547 1.9019294 1.9101451 1.9019294h3.5555178c1.4751616 0 1.7966712 1.2334294 1.0496342 2.0808237-1.2387575 1.4029083-.576826 3.559056 1.6831972 3.6532109 2.2600233-.0941549 2.9219548-2.2503026 1.6831973-3.6532109-.7564932-.8473943-.4255274-2.0902392 1.0496342-2.0902392h3.5366054c1.0496343 0 1.9101452-.8473943 1.9101452-1.9019294v-3.4931475c0-1.4688167 1.2009329-1.7889435 2.0519876-1.0451196 1.3900562 1.2334295 3.5366055.574345 3.6311671-1.6665421-.0945616-2.2503025-2.2316548-2.909387-3.6406232-1.6759575z"/><path d="m57.348349 26.1795395c-.8470325.7564932-2.0893467.4255274-2.0893467-1.0496342v-3.5176931c0-1.0496342-.8470325-1.9101452-1.9011173-1.9101452h-3.491656c-1.4681896 0-1.7881796-1.2009328-1.0446733-2.0519876 1.2329027-1.4089685.5740997-3.5555178-1.675242-3.6500794-2.2493417.0945616-2.9081448 2.2316548-1.675242 3.6406232.7529178.8510548.4235163 2.0614438-1.0446733 2.0614438h-3.5293019c-1.0634963 0-1.9387632.8794233-1.9387632 1.9479699v2.4869712c.5740998-.283685 1.1952569-.4349836 1.8164141-.4349836 2.1834614 0 3.8304689 1.7021096 3.9245837 4.0472383v.0756493.0756493c-.0941148 2.3451287-1.7411223 4.0472383-3.9151723 4.0472383-.6305686 0-1.2517257-.1512986-1.816414-.4349835v2.5909889.0094562.0378247c0 1.0496342.8470325 1.9101451 1.9011173 1.9101451h3.5669477c1.4681896 0 1.7881797 1.2293014 1.0446734 2.0803562-1.2329028 1.4089684-.5740998 3.5555177 1.675242 3.6500794 2.2493417-.0945617 2.9081447-2.241111 1.6752419-3.6406233-.7529177-.8510547-.4235162-2.0898123 1.0446734-2.0898123h3.491656c1.0446733 0 1.9011172-.8510547 1.9011172-1.9101451v-3.5555178c0-1.4751616 1.2329028-1.7966712 2.0799353-1.0496342 1.4023093 1.2387575 3.5575363.576826 3.651651-1.6831972-.0941147-2.2600233-2.2493417-2.9219548-3.651651-1.6831973z"/><path d="m35.1397373 37.9387689h-3.5684715c-1.4688167 0-1.7889434-1.2293014-1.0451196-2.0803562 1.2334295-1.4089684.574345-3.5555177-1.6759575-3.6500794-2.2503026.0945617-2.909387 2.241111-1.6759576 3.6406233.7532394.8510547.4236971 2.0898123-1.0451196 2.0898123h-3.4931475c-1.0451196 0-1.9019294.8510547-1.9019294 1.9101451v3.5555178c0 1.4751616-1.2334294 1.7966712-2.0808237 1.0496342-1.4029083-1.2387575-3.559056-.576826-3.6532109 1.6831972.0847394 2.241111 2.2503026 2.9030425 3.6437954 1.6642849.8473943-.7564931 2.0902392-.4255273 2.0902392 1.0496343v3.5366054c0 1.0496342.8473943 1.9101452 1.9019294 1.9101452h3.4931475c1.4688167 0 1.7889435 1.2009328 1.0451196 2.0519876-1.2334294 1.4089685-.574345 3.5555178 1.6759576 3.6500794 2.2503025-.0945616 2.909387-2.2316548 1.6759575-3.6406232-.7532393-.8510548-.4236971-2.0614438 1.0451196-2.0614438h3.5308095c1.0639506 0 1.9395914-.8794233 1.9395914-1.9479699v-2.4869712c-.574345.283685-1.1957675.4349836-1.81719.4349836-2.1749786 0-3.8226897-1.7021096-3.9168446-4.0472383v-.0756493-.0756493c.0941549-2.3451287 1.741866-4.0472383 3.9168446-4.0472383.630838 0 1.2522604.1512986 1.81719.4349835v-2.5909889-.0094562-.0378247c0-1.0496342-.8473943-1.9101451-1.9019294-1.9101451z"/><path d="m39.1510434 26.1700142c-.8510547.7535613-2.0898123.4238783-2.0898123-1.0455662v-3.4852208c0-1.0455662-.8510547-1.9027422-1.9101451-1.9027422h-3.5555178c-1.4751616 0-1.7966712-1.2339565-1.0496342-2.0817129 1.2387575-1.4035079.576826-3.5605769-1.6831972-3.6547721-2.2600233.0941952-2.9219548 2.2512642-1.6831973 3.6547721.7564932.8477564.4255274 2.0911325-1.0496342 2.0911325h-3.5176931c-1.0496342 0-1.9101452.8477564-1.9101452 1.9027421v3.4946403c0 1.4694445-1.2009328 1.789708-2.0519876 1.0455663-1.4089685-1.2339566-3.5555178-.5745905-3.6500794 1.6766738.0945616 2.2324252 2.2316548 2.8917913 3.6406232 1.6578347.8510548-.7535612 2.0614438-.4238782 2.0614438 1.0455663v3.5323183c0 1.0644053.8794233 1.9404203 1.9479699 1.9404203h2.4869712c-.283685-.5745905-.4349836-1.1962785-.4349836-1.8179666 0-2.1759081 1.7021096-3.8243233 4.0472383-3.9185185h.0756493.0756493c2.3451287.0941952 4.0472383 1.7426104 4.0472383 3.9185185 0 .6311076-.1512986 1.2527956-.4349835 1.8179666h2.5909889.0094562.0378247c1.0496342 0 1.9101451-.8477564 1.9101451-1.9027422v-3.5699964c0-1.4694445 1.2293014-1.789708 2.0803562-1.0455663 1.4089684 1.2339566 3.5555177.5745905 3.6500794-1.6766738-.0945617-2.2512642-2.241111-2.9106303-3.6406233-1.6766738z"/></g></g></svg>