<svg height="35" viewBox="0 0 35 35" width="35" xmlns="http://www.w3.org/2000/svg"><path d="m17.3789 0c-9.5823 0-17.3789 7.7959-17.3789 17.3782 0 9.5816 7.7959 17.3796 17.3782 17.3796 9.5816 0 17.3789-7.798 17.3789-17.3796 0-9.5823-7.7959-17.3782-17.3782-17.3782zm9.6012 16.1077-5.0316 3.6407 1.9383 5.922c.0308.0931.0469.1911.0469.2919 0 .5173-.42.9373-.9373.9373-.2051 0-.3934-.0658-.5474-.1764l-5.0708-3.668-5.0701 3.668c-.154.1106-.343.1764-.5481.1764-.518 0-.9373-.4193-.9373-.9373 0-.1022.0168-.1988.0476-.2919l1.9383-5.922-5.0309-3.64v-.0007c-.2352-.1694-.3878-.4459-.3878-.7581 0-.5173.4186-.9359.9366-.9359h6.2279l1.9285-5.8947c.1176-.3829.4739-.6615.896-.6615s.7784.2786.896.6615l1.9278 5.8947h6.2272c.5173 0 .9366.4186.9366.9359.0007.3122-.1519.5887-.3864.7581z"/></svg>