<?xml version="1.0" encoding="UTF-8"?>
<svg width="35px" height="35px" viewBox="0 0 35 35" version="1.1" xmlns="http://www.w3.org/2000/svg" xmlns:xlink="http://www.w3.org/1999/xlink">
    <!-- Generator: sketchtool 46.2 (44496) - http://www.bohemiancoding.com/sketch -->
    <title>18F1F2C0-01FE-4038-9DE2-F4740DF7E39F</title>
    <desc>Created with sketchtool.</desc>
    <defs></defs>
    <g id="Symbols" stroke="none" stroke-width="1" fill="none" fill-rule="evenodd">
        <g id="icon_flexible" fill-rule="nonzero" fill="#000000">
            <g id="Shape">
                <path d="M17.5,0 C7.85050432,0 0,7.85050432 0,17.5 C0,27.1494957 7.85050432,35 17.5,35 C27.1494957,35 35,27.1494957 35,17.5 C35,7.85050432 27.1494957,0 17.5,0 Z M17.5,31.2762968 C9.90381844,31.2762968 3.72334294,25.0965418 3.72334294,17.5 C3.72334294,9.90345821 9.90381844,3.72370317 17.5,3.72370317 C25.0961816,3.72370317 31.2766571,9.90345821 31.2766571,17.5 C31.2766571,25.0965418 25.0961816,31.2762968 17.5,31.2762968 Z"></path>
                <path d="M26.1963929,17.2677758 L18.6678203,17.2677758 L18.6678203,7.80550604 C18.6678203,7.00923351 18.0502098,6.36363636 17.2884556,6.36363636 C16.5267015,6.36363636 15.9090909,7.00923351 15.9090909,7.80550604 L15.9090909,18.7096455 C15.9090909,19.505918 16.5267015,20.1515152 17.2884556,20.1515152 L26.1963929,20.1515152 C26.958147,20.1515152 27.5757576,19.505918 27.5757576,18.7096455 C27.5757576,17.9133729 26.958147,17.2677758 26.1963929,17.2677758 Z"></path>
            </g>
        </g>
    </g>
</svg>