<?xml version="1.0" encoding="UTF-8"?>
<svg width="134px" height="134px" viewBox="0 0 134 134" version="1.1" xmlns="http://www.w3.org/2000/svg" xmlns:xlink="http://www.w3.org/1999/xlink">
    <!-- Generator: sketchtool 46.2 (44496) - http://www.bohemiancoding.com/sketch -->
    <title>6CF6F0C0-ECA8-44F4-91F2-DB39A5755C0B</title>
    <desc>Created with sketchtool.</desc>
    <defs></defs>
    <g id="Symbols" stroke="none" stroke-width="1" fill="none" fill-rule="evenodd">
        <g id="icon_play" transform="translate(3.000000, 3.000000)">
            <g id="Path">
                <path d="M64,0 C28.7104,0 0,28.7104 0,64 C0,99.2896 28.7104,128 64,128 C99.2896,128 128,99.2896 128,64 C128,28.7104 99.2896,0 64,0 Z" stroke="#FFFFFF" stroke-width="6" fill="#8DC1FF"></path>
                <path d="M86.675274,65.314014 L51.923501,89.1777264 C51.6565442,89.3606815 51.3453578,89.4545455 51.0341715,89.4545455 C50.7814313,89.4545455 50.5271115,89.3940907 50.2964861,89.2699994 C49.7783688,88.9947713 49.4545455,88.4538604 49.4545455,87.8636313 L49.4545455,40.1362065 C49.4545455,39.5459773 49.7783688,39.0050665 50.2964861,38.7298384 C50.8146035,38.4530193 51.4401354,38.4912013 51.9250806,38.8221114 L86.6768536,62.6858238 C87.1065119,62.9817338 87.3655706,63.4733263 87.3655706,63.9999189 C87.3655706,64.5265115 87.1065119,65.018104 86.675274,65.314014 Z" fill="#FFFFFF"></path>
            </g>
        </g>
    </g>
</svg>