<svg height="35" viewBox="0 0 35 35" width="35" xmlns="http://www.w3.org/2000/svg"><g fill="#010002"><path d="m16.9366751 4.10273087v10.89726913h2.1266498v-10.89726913l4.432974 4.46737911 1.5037011-1.51560942-7.0003478-7.05450056-6.9996522 7.05391638 1.5017305 1.51689462z"/><path d="m15 19.063286v-2.1271515h-10.89214433l4.47226034-4.4318749-1.51772906-1.5042596-7.06238695 6.9997102 7.06238695 7.0002898 1.51772906-1.5041437-4.47296202-4.4325703z"/><path d="m19.0636198 30.8972691v-10.8972691h-2.1265441v10.8966849l-4.4327538-4.4680801-1.5043219 1.5156094 7 7.0557858 7-7.0552016-1.5023514-1.5168946z"/><path d="m27.9370283 11-1.5170274 1.5017096 4.4722604 4.4344249h-10.8922613v2.1271515h10.8922613l-4.4722604 4.4312953 1.515741 1.5054187 7.0642581-7.0002898z"/></g></svg>