<?xml version="1.0" encoding="UTF-8"?>
<svg width="75px" height="75px" viewBox="0 0 75 75" version="1.1" xmlns="http://www.w3.org/2000/svg" xmlns:xlink="http://www.w3.org/1999/xlink">
    <!-- Generator: sketchtool 46.2 (44496) - http://www.bohemiancoding.com/sketch -->
    <title>66C60B10-E814-4141-9675-BD46BCD5C617</title>
    <desc>Created with sketchtool.</desc>
    <defs>
        <rect id="path-1" x="0" y="0" width="75" height="75" rx="37.5"></rect>
    </defs>
    <g id="Symbols" stroke="none" stroke-width="1" fill="none" fill-rule="evenodd">
        <g id="icon/-Rearchitecture">
            <g id="icon_rearchitect">
                <g id="Rectangle-3">
                    <use fill="#FFFFFF" fill-rule="evenodd" xlink:href="#path-1"></use>
                    <rect stroke="#9B9B9B" stroke-width="1" x="0.5" y="0.5" width="74" height="74" rx="37"></rect>
                </g>
                <g id="settings" transform="translate(16.000000, 17.000000)" fill-rule="nonzero" fill="#000000">
                    <path d="M26.5503132,11.0539207 L24.5862213,10.7207265 C24.3816284,10.0601837 24.1185804,9.42302296 23.7970772,8.81508977 L24.9544885,7.19588309 C25.4455115,6.50611273 25.3695198,5.56498539 24.7674322,4.96874322 L23.0254697,3.22678079 C22.6981211,2.89943215 22.2655532,2.71822129 21.8037578,2.71822129 C21.4413361,2.71822129 21.0964509,2.82928601 20.8041754,3.03972443 L19.1791232,4.1971357 C18.5478079,3.86394154 17.8872651,3.58920251 17.2033403,3.3846096 L16.8759916,1.44389979 C16.7356994,0.607991649 16.0167015,5.84551148e-05 15.1691023,5.84551148e-05 L12.708142,5.84551148e-05 C11.8605428,5.84551148e-05 11.1415449,0.607991649 11.0012526,1.44389979 L10.6622129,3.4313737 C10.0075157,3.6359666 9.37035491,3.90486013 8.76242171,4.23220877 L7.15490605,3.07479749 C6.86263048,2.86435908 6.51189979,2.75329436 6.14947808,2.75329436 C5.68768267,2.75329436 5.24926931,2.93450522 4.92776618,3.26185386 L3.17995825,5.00381628 C2.58371608,5.60005846 2.50187891,6.5411858 2.99290188,7.23095616 L4.16200418,8.87354489 C3.84050104,9.48732359 3.58329854,10.1244843 3.38455115,10.7850271 L1.44384134,11.1123758 C0.607933194,11.2526681 -2.84217094e-14,11.971666 -2.84217094e-14,12.8192651 L-2.84217094e-14,15.2802255 C-2.84217094e-14,16.1278246 0.607933194,16.8468225 1.44384134,16.9871148 L3.43131524,17.3261545 C3.63590814,17.9808518 3.90480167,18.6180125 4.23215031,19.2259457 L3.08058455,20.8276159 C2.58956159,21.5173862 2.66555324,22.4585136 3.26764092,23.0547557 L5.00960334,24.7967182 C5.33695198,25.1240668 5.76951983,25.3052777 6.23131524,25.3052777 C6.59373695,25.3052777 6.93862213,25.1942129 7.2308977,24.9837745 L8.87348643,23.8146722 C9.46388309,24.1244843 10.0835073,24.3758413 10.7206681,24.5745887 L11.0480167,26.5386806 C11.188309,27.3745887 11.9073069,27.9825219 12.7549061,27.9825219 L15.2217119,27.9825219 C16.0693111,27.9825219 16.788309,27.3745887 16.9286013,26.5386806 L17.2617954,24.5745887 C17.9223382,24.3699958 18.559499,24.1069478 19.1674322,23.7854447 L20.7866388,24.9428559 C21.0789144,25.1532944 21.4296451,25.2643591 21.7920668,25.2643591 L21.7920668,25.2643591 C22.2538622,25.2643591 22.6864301,25.0831482 23.0137787,24.7557996 L24.7557411,23.0138372 C25.3519833,22.417595 25.4338205,21.4764676 24.9427975,20.7866973 L23.7853862,19.1616451 C24.1068894,18.5478664 24.3757829,17.9107056 24.5745303,17.2560084 L26.5386221,16.9286597 C27.3745303,16.7883674 27.9824635,16.0693695 27.9824635,15.2217704 L27.9824635,12.76081 C27.9941545,11.9132109 27.3862213,11.1942129 26.5503132,11.0539207 Z M26.4158664,15.2217704 C26.4158664,15.297762 26.3632568,15.3620626 26.2872651,15.3737537 L23.8321503,15.7829395 C23.5223382,15.8355491 23.2768267,16.063524 23.2008351,16.3616451 C22.9787056,17.2209353 22.639666,18.0451524 22.1837161,18.8109144 C22.0258873,19.0798079 22.0375783,19.4130021 22.2187891,19.6702046 L23.6626305,21.7044426 C23.7035491,21.7628977 23.6977035,21.8505804 23.6450939,21.90319 L21.9031315,23.6451524 C21.8622129,23.686071 21.8212944,23.6919165 21.7920668,23.6919165 C21.7569937,23.6919165 21.7277662,23.6802255 21.7043841,23.6626889 L19.6759916,22.2188476 C19.4246347,22.0376367 19.085595,22.0259457 18.8167015,22.1837745 C18.0509395,22.6397244 17.2267223,22.9787641 16.3674322,23.2008935 C16.0634656,23.2768852 15.8354906,23.5282422 15.7887265,23.8322088 L15.3736952,26.2873236 C15.3620042,26.3633152 15.2977035,26.4159248 15.2217119,26.4159248 L12.7607516,26.4159248 C12.6847599,26.4159248 12.6204593,26.3633152 12.6087683,26.2873236 L12.1995825,23.8322088 C12.1469729,23.5223967 11.9189979,23.2768852 11.6208768,23.2008935 C10.7849687,22.9846096 9.9782881,22.6514154 9.22421712,22.2188476 C9.10146138,22.1487015 8.9611691,22.1136284 8.82672234,22.1136284 C8.66889353,22.1136284 8.50521921,22.1603925 8.37077244,22.2597662 L6.32484342,23.7152985 C6.29561587,23.7328351 6.26638831,23.7445261 6.23716075,23.7445261 C6.21377871,23.7445261 6.16701461,23.7386806 6.12609603,23.697762 L4.38413361,21.9557996 C4.33152401,21.90319 4.3256785,21.8213528 4.36659708,21.7570522 L5.8045929,19.7403507 C5.98580376,19.4831482 5.99749478,19.1441086 5.83966597,18.875215 C5.38371608,18.1152985 5.03298539,17.2910814 4.81085595,16.4317912 C4.72901879,16.1336701 4.48350731,15.9056952 4.17954071,15.8530856 L1.70688935,15.4322088 C1.6308977,15.4205177 1.5782881,15.3562171 1.5782881,15.2802255 L1.5782881,12.8192651 C1.5782881,12.7432735 1.6308977,12.6789729 1.70688935,12.6672818 L4.14446764,12.258096 C4.45427975,12.2054864 4.70563674,11.9775115 4.78162839,11.6735449 C4.99791232,10.8142547 5.33110647,9.98419207 5.78121086,9.21843006 C5.93903967,8.94953653 5.92150313,8.61634238 5.74029228,8.36498539 L4.28475992,6.31905637 C4.24384134,6.26060125 4.24968685,6.17291858 4.30229645,6.12030898 L6.04425887,4.37834656 C6.08517745,4.33742797 6.12609603,4.33158246 6.15532359,4.33158246 C6.19039666,4.33158246 6.21962422,4.34327349 6.24300626,4.36081002 L8.25970772,5.79880585 C8.51691023,5.9800167 8.8559499,5.99170772 9.12484342,5.83387891 C9.88475992,5.37792902 10.708977,5.02719833 11.5682672,4.80506889 C11.8663883,4.72323173 12.0943633,4.47772025 12.1469729,4.17375365 L12.5678497,1.7011023 C12.5795407,1.62511065 12.6438413,1.57250104 12.719833,1.57250104 L15.1807933,1.57250104 C15.256785,1.57250104 15.3210856,1.62511065 15.3327766,1.7011023 L15.7419624,4.13868058 C15.794572,4.44849269 16.022547,4.69984969 16.3265136,4.77584134 C17.2091858,4.99797077 18.0509395,5.34285595 18.834238,5.80465136 C19.1031315,5.96248017 19.4363257,5.95078914 19.6935282,5.76957829 L21.7102296,4.31989144 C21.7394572,4.30235491 21.7686848,4.29066388 21.7979123,4.29066388 C21.8212944,4.29066388 21.8680585,4.29650939 21.908977,4.33742797 L23.6509395,6.0793904 C23.7035491,6.132 23.7093946,6.21383716 23.668476,6.27813779 L22.2246347,8.30653027 C22.0434238,8.55788727 22.0317328,8.89692693 22.1895616,9.16582046 C22.6455115,9.93158246 22.9845511,10.7557996 23.2066806,11.6150898 C23.2826722,11.9190564 23.5340292,12.1470313 23.8379958,12.1937954 L26.2931106,12.6088267 C26.3691023,12.6205177 26.4217119,12.6848184 26.4217119,12.76081 L26.4217119,15.2217704 L26.4158664,15.2217704 L26.4158664,15.2217704 Z" id="Shape"></path>
                    <path d="M13.9941545,7.94995407 C10.6622129,7.94995407 7.95574113,10.6564259 7.95574113,13.9883674 C7.95574113,17.320309 10.6622129,20.0267808 13.9941545,20.0267808 C17.326096,20.0267808 20.0325678,17.320309 20.0325678,13.9883674 C20.0325678,10.6564259 17.326096,7.94995407 13.9941545,7.94995407 Z M13.9941545,18.4484927 C11.5331942,18.4484927 9.53402923,16.4493278 9.53402923,13.9883674 C9.53402923,11.5274071 11.5331942,9.52824217 13.9941545,9.52824217 C16.4551148,9.52824217 18.4542797,11.5274071 18.4542797,13.9883674 C18.4542797,16.4493278 16.4551148,18.4484927 13.9941545,18.4484927 Z" id="Shape"></path>
                </g>
                <g id="settings-copy" transform="translate(41.000000, 34.000000)" fill-rule="nonzero" fill="#000000">
                    <path d="M17.0786538,7.11050762 L15.8152395,6.89617715 C15.6836338,6.47127637 15.5144266,6.06141634 15.3076177,5.67035722 L16.0521297,4.6287863 C16.3679833,4.1850846 16.3191012,3.57969501 15.9318045,3.19615626 L14.8112764,2.07562147 C14.6007073,1.86505118 14.3224554,1.74848548 14.0254026,1.74848548 C13.7922726,1.74848548 13.5704231,1.81992897 13.382415,1.95529559 L12.3370901,2.69981199 C11.9309926,2.48548151 11.5060944,2.30875287 11.0661555,2.17714644 L10.8555864,0.928765406 C10.7653425,0.391059118 10.3028427,0 9.75761924,0 L8.17459122,0 C7.6293678,0 7.16686793,0.391059118 7.07662405,0.928765406 L6.85853468,2.20722791 C6.43739658,2.33883434 6.02753897,2.5118028 5.63648217,2.72237309 L4.60243774,1.9778567 C4.41442967,1.84249008 4.18881997,1.77104658 3.95568996,1.77104658 C3.65863719,1.77104658 3.37662508,1.88761228 3.16981619,2.09818258 L2.04552789,3.21871736 C1.66199141,3.60225611 1.60934915,4.20764571 1.92520272,4.6513474 L2.67723503,5.70795906 C2.47042614,6.10277836 2.30497903,6.5126384 2.17713354,6.93753917 L0.928759904,7.14810946 C0.391056802,7.23835388 0,7.70085649 0,8.24608314 L0,9.82912053 C0,10.3743472 0.391056802,10.8368498 0.928759904,10.9270942 L2.20721483,11.1451849 C2.33882049,11.5663255 2.51178792,11.9761855 2.72235697,12.3672446 L1.98160514,13.397535 C1.66575157,13.8412367 1.71463367,14.4466263 2.10193031,14.830165 L3.22245845,15.9506998 C3.4330275,16.1612701 3.71127946,16.2778358 4.00833222,16.2778358 C4.24146223,16.2778358 4.46331177,16.2063923 4.65131984,16.0710257 L5.70792524,15.3189889 C6.08770156,15.5182787 6.48627868,15.6799666 6.89613629,15.8078128 L7.10670534,17.0712346 C7.19694922,17.6089409 7.65944909,18 8.20467251,18 L9.79146069,18 C10.3366841,18 10.799184,17.6089409 10.8894279,17.0712346 L11.1037571,15.8078128 C11.5286553,15.6762064 11.9385129,15.5069981 12.3295697,15.300188 L13.3711345,16.0447044 C13.5591426,16.180071 13.7847523,16.2515145 14.0178823,16.2515145 L14.0178823,16.2515145 C14.314935,16.2515145 14.593187,16.1349488 14.803756,15.9243785 L15.9242842,14.8038437 C16.3078207,14.420305 16.3604629,13.8149154 16.0446094,13.3712137 L15.3000974,12.3258826 C15.5069063,11.9310633 15.6798737,11.5212033 15.8077192,11.1000627 L17.0711335,10.8894924 C17.6088366,10.799248 17.9998934,10.3367454 17.9998934,9.7915187 L17.9998934,8.2084813 C18.0074137,7.66325465 17.6163569,7.20075204 17.0786538,7.11050762 Z M16.9921701,9.7915187 C16.9921701,9.84040109 16.9583286,9.88176311 16.9094465,9.88928348 L15.3301787,10.1524963 C15.1308901,10.186338 14.9729633,10.3329852 14.9240812,10.5247545 C14.7811951,11.0775016 14.5631057,11.6076875 14.2698131,12.1002716 C14.1682887,12.27324 14.1758091,12.4875705 14.2923741,12.6530186 L15.221134,13.9615626 C15.2474551,13.9991644 15.2436949,14.0555672 15.2098535,14.0894088 L14.0893253,15.2099436 C14.0630042,15.2362649 14.0366831,15.2400251 14.0178823,15.2400251 C13.9953213,15.2400251 13.9765205,15.2325047 13.9614799,15.2212241 L12.6567038,14.2924587 C12.4950169,14.175893 12.2769275,14.1683727 12.10396,14.2698976 C11.6113789,14.563192 11.0811961,14.7812826 10.5284524,14.9241696 C10.332924,14.973052 10.1862777,15.1347399 10.1561964,15.3302695 L9.88922489,16.9095467 C9.88170457,16.9584291 9.84034279,16.9922707 9.79146069,16.9922707 L8.20843268,16.9922707 C8.15955058,16.9922707 8.1181888,16.9584291 8.11066848,16.9095467 L7.84745717,15.3302695 C7.81361571,15.1309797 7.66696941,14.973052 7.47520117,14.9241696 C6.93749807,14.7850428 6.41859578,14.5707123 5.93353494,14.2924587 C5.85457154,14.2473365 5.76432767,14.2247754 5.67784395,14.2247754 C5.57631959,14.2247754 5.47103506,14.2548569 5.38455135,14.31878 L4.0684948,15.2550658 C4.049694,15.2663464 4.03089319,15.2738667 4.01209238,15.2738667 C3.99705173,15.2738667 3.96697044,15.2701065 3.94064931,15.2437853 L2.82012117,14.1232505 C2.78627971,14.0894088 2.78251955,14.0367662 2.80884068,13.9954042 L3.73384042,12.6981408 C3.85040543,12.5326927 3.85792576,12.314602 3.75640139,12.1416336 C3.46310879,11.6528097 3.2374991,11.1226238 3.09461296,10.5698767 C3.0419707,10.3781074 2.88404391,10.2314602 2.68851551,10.1976186 L1.09796717,9.92688531 C1.04908507,9.91936495 1.01524362,9.87800292 1.01524362,9.82912053 L1.01524362,8.24608314 C1.01524362,8.19720075 1.04908507,8.15583873 1.09796717,8.14831836 L2.66595454,7.88510549 C2.86524311,7.85126384 3.02693005,7.70461667 3.07581215,7.50908711 C3.21493813,6.95634009 3.42926734,6.42239398 3.71879978,5.9298099 C3.82032414,5.75684145 3.80904366,5.54251097 3.69247865,5.38082306 L2.75619842,4.06475872 C2.72987729,4.02715688 2.73363745,3.97075413 2.76747891,3.93691247 L3.88800705,2.81637769 C3.91432818,2.7900564 3.94064931,2.78629622 3.95945012,2.78629622 C3.98201109,2.78629622 4.0008119,2.79381659 4.01585254,2.80509714 L5.31310828,3.73010236 C5.47855539,3.84666806 5.69664476,3.85418843 5.86961219,3.75266346 C6.35843319,3.45936912 6.88861597,3.23375809 7.44135972,3.09087111 C7.63312796,3.03822854 7.77977426,2.88030081 7.81361571,2.68477126 L8.08434735,1.09421349 C8.09186767,1.04533111 8.13322945,1.01148945 8.18211155,1.01148945 L9.76513956,1.01148945 C9.81402166,1.01148945 9.85538344,1.04533111 9.86290376,1.09421349 L10.1261151,2.66221015 C10.1599565,2.8614999 10.3066028,3.0231878 10.5021312,3.07207019 C11.0699156,3.21495718 11.6113789,3.43680802 12.1152405,3.73386254 C12.288208,3.83538751 12.5025372,3.82786714 12.6679843,3.71130144 L13.96524,2.77877585 C13.9840408,2.7674953 14.0028416,2.75997493 14.0216424,2.75997493 C14.0366831,2.75997493 14.0667644,2.76373512 14.0930855,2.7900564 L15.2136137,3.91059118 C15.2474551,3.94443284 15.2512153,3.99707541 15.2248941,4.03843743 L14.2961342,5.34322122 C14.1795692,5.50490913 14.1720489,5.72299979 14.2735733,5.89596825 C14.5668659,6.38855233 14.7849552,6.91873825 14.9278414,7.47148527 C14.9767235,7.66701483 15.1384104,7.813662 15.3339388,7.84374347 L16.9132067,8.11071652 C16.9620888,8.11823689 16.9959302,8.15959891 16.9959302,8.2084813 L16.9959302,9.7915187 L16.9921701,9.7915187 L16.9921701,9.7915187 Z" id="Shape"></path>
                    <path d="M9,5.29411765 C6.95512784,5.29411765 5.29411765,6.95512784 5.29411765,9 C5.29411765,11.0448722 6.95512784,12.7058824 9,12.7058824 C11.0448722,12.7058824 12.7058824,11.0448722 12.7058824,9 C12.7058824,6.95512784 11.0448722,5.29411765 9,5.29411765 Z M9,11.7372587 C7.4896646,11.7372587 6.2627413,10.5103354 6.2627413,9 C6.2627413,7.4896646 7.4896646,6.2627413 9,6.2627413 C10.5103354,6.2627413 11.7372587,7.4896646 11.7372587,9 C11.7372587,10.5103354 10.5103354,11.7372587 9,11.7372587 Z" id="Shape"></path>
                </g>
                <g id="settings-copy-2" transform="translate(29.000000, 45.000000)" fill-rule="nonzero" fill="#000000">
                    <path d="M13.2833974,5.53039482 L12.3007418,5.36369334 C12.1983819,5.03321496 12.0667762,4.71443493 11.9059249,4.41027784 L12.4849898,3.60016712 C12.7306536,3.2550658 12.6926342,2.78420723 12.3914035,2.48589931 L11.5198816,1.61437226 C11.3561057,1.45059536 11.1396875,1.35993315 10.9086465,1.35993315 C10.7273231,1.35993315 10.5547735,1.41550031 10.408545,1.52078546 L9.59551449,2.09985377 C9.27966092,1.93315229 8.9491845,1.79569668 8.6070098,1.69333612 L8.44323388,0.722373094 C8.37304419,0.304157092 8.01332207,0 7.58925941,0 L6.3580154,0 C5.93395273,0 5.57423061,0.304157092 5.50404093,0.722373094 L5.33441586,1.71673282 C5.00686401,1.81909338 4.68808587,1.9536244 4.38393058,2.1174013 L3.5796738,1.53833299 C3.4334453,1.43304784 3.25797109,1.37748068 3.07664774,1.37748068 C2.84560671,1.37748068 2.62626395,1.46814289 2.46541259,1.63191978 L1.59096613,2.50344684 C1.29265998,2.80175475 1.251716,3.27261333 1.49737989,3.61771464 L2.08229391,4.43952371 C1.92144256,4.74660539 1.79276147,5.06538542 1.69332609,5.3958638 L0.722368814,5.55964069 C0.30415529,5.62983079 0,5.98955504 0,6.41362022 L0,7.64487153 C0,8.0689367 0.30415529,8.42866096 0.722368814,8.49885105 L1.71672265,8.66847713 C1.8190826,8.99603092 1.95361283,9.31481095 2.11738875,9.61896804 L1.54124844,10.420305 C1.29558455,10.7654063 1.33360397,11.2362649 1.63483469,11.5345728 L2.50635657,12.4060999 C2.6701325,12.5698767 2.88655069,12.660539 3.11759173,12.660539 C3.29891507,12.660539 3.47146471,12.6049718 3.61769321,12.4996867 L4.43949741,11.9147692 C4.73487899,12.0697723 5.04488342,12.1955296 5.36366156,12.2949655 L5.52743749,13.2776269 C5.59762717,13.6958429 5.95734929,14 6.38141196,14 L7.61558054,14 C8.0396432,14 8.39936532,13.6958429 8.46955501,13.2776269 L8.6362555,12.2949655 C8.96673192,12.192605 9.28551006,12.0609985 9.58966535,11.9001462 L10.3997713,12.4792145 C10.5459998,12.5844997 10.721474,12.6400668 10.9027973,12.6400668 L10.9027973,12.6400668 C11.1338384,12.6400668 11.3502566,12.5494046 11.5140325,12.3856277 L12.3855544,11.5141007 C12.6838605,11.2157928 12.7248045,10.7449342 12.4791406,10.3998329 L11.9000757,9.58679758 C12.0609271,9.2797159 12.1954573,8.96093587 12.2948927,8.63338208 L13.2775482,8.46960518 C13.6957618,8.39941508 13.9999171,8.03969083 13.9999171,7.61562565 L13.9999171,6.38437435 C14.0057662,5.96030917 13.7016109,5.60058492 13.2833974,5.53039482 Z M13.2161323,7.61562565 C13.2161323,7.65364529 13.1898111,7.68581575 13.1517917,7.69166493 L11.9234723,7.89638605 C11.7684701,7.92270733 11.6456381,8.03676624 11.6076187,8.1859202 C11.4964851,8.61583455 11.32686,9.02820138 11.0987435,9.41132233 C11.0197801,9.54585335 11.0256293,9.71255484 11.1162909,9.84123668 L11.8386598,10.8589931 C11.8591318,10.888239 11.8562072,10.9321078 11.8298861,10.9584291 L10.9583642,11.8299561 C10.9378922,11.8504282 10.9174202,11.8533528 10.9027973,11.8533528 C10.8852499,11.8533528 10.8706271,11.8475037 10.8589288,11.8387299 L9.84410295,11.1163568 C9.71834644,11.0256946 9.54872137,11.0198454 9.41419115,11.0988093 C9.03107247,11.3269271 8.61870808,11.4965532 8.18879628,11.6076875 C8.03671863,11.6457071 7.9226604,11.7714644 7.89926384,11.9235429 L7.69161936,13.1518696 C7.68577022,13.1898893 7.65359995,13.2162106 7.61558054,13.2162106 L6.38433653,13.2162106 C6.34631711,13.2162106 6.31414684,13.1898893 6.3082977,13.1518696 L6.1035778,11.9235429 C6.07725667,11.7685398 5.96319843,11.6457071 5.81404536,11.6076875 C5.39583183,11.4994778 4.99224116,11.3327763 4.61497162,11.1163568 C4.55355564,11.0812618 4.48336596,11.0637142 4.41610085,11.0637142 C4.33713746,11.0637142 4.25524949,11.0871109 4.18798438,11.1368289 L3.16438485,11.8650512 C3.149762,11.8738249 3.13513915,11.8796741 3.1205163,11.8796741 C3.10881802,11.8796741 3.08542145,11.8767495 3.06494946,11.8562774 L2.19342757,10.9847504 C2.16710644,10.9584291 2.16418187,10.9174849 2.18465386,10.8853144 L2.90409811,9.87633173 C2.99475978,9.74764989 3.00060892,9.57802381 2.92164553,9.44349279 C2.69352906,9.06329643 2.51805486,8.6509296 2.40692119,8.22101525 C2.36597721,8.07186129 2.24314527,7.95780238 2.09106762,7.93148109 L0.853974469,7.7209108 C0.815955058,7.71506163 0.789633927,7.68289116 0.789633927,7.64487153 L0.789633927,6.41362022 C0.789633927,6.37560058 0.815955058,6.34343012 0.853974469,6.33758095 L2.0735202,6.13285983 C2.22852242,6.10653854 2.35427893,5.99247963 2.39229834,5.84040109 C2.50050743,5.41048673 2.66720793,4.99519532 2.89239983,4.61207437 C2.97136322,4.47754335 2.96258951,4.31084186 2.87192784,4.1850846 L2.14370988,3.16147901 C2.12323789,3.13223313 2.12616246,3.08836432 2.15248359,3.06204303 L3.02400548,2.19051598 C3.04447747,2.17004387 3.06494946,2.16711928 3.07957231,2.16711928 C3.09711973,2.16711928 3.11174259,2.17296846 3.12344087,2.18174222 L4.13241755,2.90119072 C4.26109863,2.99185294 4.4307237,2.99770211 4.56525392,2.91873825 C4.94544804,2.69062043 5.35781242,2.51514518 5.78772423,2.40401086 C5.9368773,2.36306664 6.05093553,2.24023397 6.07725667,2.08815542 L6.28782571,0.85105494 C6.29367485,0.813035304 6.32584512,0.786714017 6.36386454,0.786714017 L7.59510855,0.786714017 C7.63312796,0.786714017 7.66529823,0.813035304 7.67114737,0.85105494 L7.87586728,2.0706079 C7.90218841,2.22561103 8.01624664,2.35136829 8.16832429,2.38938793 C8.60993437,2.50052225 9.03107247,2.67307291 9.42296486,2.90411531 C9.55749508,2.98307917 9.72419558,2.97723 9.85287666,2.88656779 L10.8618533,2.16127011 C10.8764762,2.15249634 10.891099,2.14664717 10.9057219,2.14664717 C10.9174202,2.14664717 10.9408167,2.14957176 10.9612887,2.17004387 L11.8328106,3.04157092 C11.8591318,3.06789221 11.8620563,3.10883643 11.8415843,3.14100689 L11.1192155,4.15583873 C11.0285538,4.28159599 11.0227047,4.45122206 11.1016681,4.58575308 C11.3297846,4.96887403 11.4994096,5.38124086 11.6105433,5.81115521 C11.6485627,5.96323376 11.7743192,6.07729267 11.9263969,6.10068937 L13.1547163,6.30833507 C13.1927357,6.31418425 13.2190568,6.34635471 13.2190568,6.38437435 L13.2190568,7.61562565 L13.2161323,7.61562565 L13.2161323,7.61562565 Z" id="Shape"></path>
                    <path d="M7,4.66666667 C5.7124879,4.66666667 4.66666667,5.7124879 4.66666667,7 C4.66666667,8.2875121 5.7124879,9.33333333 7,9.33333333 C8.2875121,9.33333333 9.33333333,8.2875121 9.33333333,7 C9.33333333,5.7124879 8.2875121,4.66666667 7,4.66666667 Z M7,8.72345918 C6.04904808,8.72345918 5.27654082,7.95095192 5.27654082,7 C5.27654082,6.04904808 6.04904808,5.27654082 7,5.27654082 C7.95095192,5.27654082 8.72345918,6.04904808 8.72345918,7 C8.72345918,7.95095192 7.95095192,8.72345918 7,8.72345918 Z" id="Shape"></path>
                </g>
            </g>
        </g>
    </g>
</svg>