<?xml version="1.0" encoding="UTF-8"?>
<svg width="68px" height="74px" viewBox="0 0 68 74" version="1.1" xmlns="http://www.w3.org/2000/svg" xmlns:xlink="http://www.w3.org/1999/xlink">
    <!-- Generator: sketchtool 46.2 (44496) - http://www.bohemiancoding.com/sketch -->
    <title>B6632D46-2DEA-43C6-942C-22BFCB6B544C</title>
    <desc>Created with sketchtool.</desc>
    <defs></defs>
    <g id="Symbols" stroke="none" stroke-width="1" fill="none" fill-rule="evenodd">
        <g id="icon/-icon_innovation">
            <g id="icon_innovation">
                <g id="rRzwYL.tif_1_" transform="translate(8.000000, 6.000000)" fill-rule="nonzero" fill="#000000">
                    <path d="M16.0350318,48.5226131 L16.0350318,41.8592965 C15.2923567,42.4060302 14.6509554,42.9527638 13.9757962,43.3628141 C12.1866242,44.4562814 10.6,45.6864322 8.7433121,46.6432161 C8.06815287,47.121608 7.19044586,47.2924623 6.11019108,47.2241206 C5.13121019,47.1557789 4.05095541,46.3356784 4.11847134,45.3105528 C4.18598726,44.4221106 4.38853503,43.5678392 4.75987261,42.7477387 C5.50254777,41.039196 6.34649682,39.3648241 7.29171975,37.758794 C7.29171975,37.758794 7.29171975,37.758794 7.32547771,37.758794 C7.89936306,38.2030151 7.39299363,37.8271357 8.00063694,38.2713568 C7.96687898,38.3055276 7.8656051,39.0914573 7.83184713,39.1256281 C7.08917197,40.8 6.61656051,41.8592965 5.90764331,43.5336683 C5.77261146,43.8753769 5.57006369,44.8321608 5.60382166,45.2080402 C5.63757962,46.1306533 6.58280255,46.0964824 7.46050955,45.9256281 C7.83184713,45.8572864 8.23694268,45.7547739 8.57452229,45.5497487 C10.7687898,44.2170854 12.9630573,42.8502513 15.2923567,41.3809045 C14.144586,40.5266332 14.5159236,40.7658291 12.4904459,39.5015075 C9.48598726,37.6562814 7.52802548,34.5809045 6.85286624,31.0954774 C6.68407643,30.2070352 6.34649682,29.8994975 5.7388535,29.5919598 C4.35477707,28.8743719 2.90318471,28.1909548 1.72165605,27.2 C-0.641401274,25.2522613 -0.506369427,22.7577889 1.95796178,20.9467337 C2.59936306,20.4683417 3.34203822,20.0924623 4.08471338,19.6824121 C4.42229299,19.4773869 4.8611465,19.6482412 5.02993631,19.9899497 L5.02993631,19.9899497 C5.16496815,20.2974874 5.06369427,20.7075377 4.75987261,20.878392 C4.08471338,21.2542714 3.40955414,21.6301508 2.80191083,22.0743719 C1.28280255,23.2020101 1.28280255,25.1155779 2.76815287,26.2773869 C3.7133758,26.9949749 4.75987261,27.5758794 5.97515924,28.3276382 C5.84012739,27.3708543 5.7388535,26.6532663 5.67133758,25.9698492 C5.16496815,21.3226131 6.14394904,17.0170854 8.50700637,13.0532663 C8.7433121,12.6432161 8.7433121,12.1648241 8.50700637,11.7547739 C7.22420382,9.49949749 5.97515924,7.21005025 4.79363057,4.88643216 C4.38853503,4.06633166 4.25350318,3.07537688 4.1522293,2.15276382 C4.05095541,1.12763819 4.82738854,0.341708543 5.84012739,0.375879397 C6.71783439,0.410050251 7.66305732,0.649246231 8.47324841,0.95678392 C9.51974522,1.36683417 10.5324841,1.91356784 11.511465,2.52864322 C12.7267516,3.28040201 13.9082803,4.13467337 15.1235669,4.98894472 C14.2121019,5.6040201 14.2458599,5.56984925 13.4694268,5.05728643 C11.7815287,3.99798995 10.1273885,2.90452261 8.40573248,1.94773869 C7.83184713,1.60603015 7.05541401,1.23015075 6.41401274,1.81105528 C5.77261146,2.3919598 5.97515924,3.17788945 6.17770701,3.92964824 C6.85286624,6.59497487 8.27070064,8.85025126 9.72229299,11.2422111 C13.9420382,6.01407035 19.3095541,3.14371859 25.9598726,3.14371859 C32.6101911,3.14371859 37.977707,6.01407035 42.1974522,11.2422111 C43.6152866,8.88442211 45.066879,6.59497487 45.7420382,3.9638191 C45.910828,3.24623116 46.1471338,2.42613065 45.5057325,1.84522613 C44.8305732,1.23015075 44.0541401,1.64020101 43.4464968,1.98190955 C41.7585987,2.93869347 40.1044586,3.92964824 38.5178344,5.02311558 C37.9101911,5.43316583 37.4375796,5.56984925 36.7286624,5.02311558 C37.9101911,4.20301508 38.9904459,3.31457286 40.2394904,2.63115578 C41.7923567,1.77688442 43.4127389,0.990954774 45.1006369,0.47839196 C47.0923567,-0.102512563 48.1726115,1.02512563 47.6324841,3.07537688 C47.2611465,4.47638191 46.7210191,5.84321608 46.0796178,7.14170854 C45.2694268,8.74773869 44.2566879,10.2512563 43.3789809,11.8231156 C43.243949,12.0964824 43.1426752,12.5748744 43.277707,12.7798995 C46.3834395,18.0763819 47.1598726,23.6462312 45.5057325,29.5919598 C45.4719745,29.6603015 45.5057325,29.7628141 45.4719745,30.0361809 C46.2484076,29.7628141 46.9573248,29.5919598 47.6324841,29.2502513 C48.7127389,28.6693467 49.7929936,28.1226131 50.7382166,27.3366834 C51.8859873,26.3798995 51.9197452,25.2180905 50.8057325,24.2271357 C49.8605096,23.3728643 48.7464968,22.6552764 47.5987261,21.8351759 C47.3624204,21.6643216 47.2949045,21.3909548 47.3961783,21.1175879 L47.3961783,21.1175879 C47.5312102,20.7758794 47.9025478,20.639196 48.2063694,20.7758794 C49.6917197,21.4592965 51.0420382,22.279397 52.0547771,23.5437186 C53.3375796,25.1497487 53.1687898,26.9949749 51.6496815,28.4643216 C50.2993631,29.7286432 48.6789809,30.5145729 46.9573248,30.958794 C45.4719745,31.3688442 44.5267516,32.0864322 43.8515924,33.5557789 C42.4675159,36.4603015 40.2732484,38.7497487 37.6401274,40.6291457 C37.4038217,40.8 37.133758,41.0050251 36.8299363,41.2100503 C39.0579618,42.918593 41.1847134,44.5929648 43.7165605,45.6522613 C44.0203822,45.7889447 44.3579618,45.8914573 44.6955414,45.9256281 C45.3707006,46.0281407 45.8433121,45.6864322 45.8433121,45.0030151 C45.8433121,44.319598 45.8095541,43.6020101 45.5732484,42.9869347 C44.8643312,41.3125628 44.0541401,39.6723618 43.277707,38.0321608 C43.277707,38.0321608 43.277707,38.0321608 43.277707,38.0321608 C43.0751592,37.5879397 43.4127389,37.0753769 43.8853503,37.1095477 C44.5605096,37.1778894 44.8643312,37.758794 45.1681529,38.5105528 C45.944586,40.4241206 46.856051,42.3376884 47.6324841,44.2512563 C47.7675159,44.5929648 47.7675159,45.0371859 47.7675159,45.4472362 C47.7675159,46.5065327 46.6872611,47.2241206 45.6745223,47.3266332 C44.4929936,47.4291457 43.8178344,47.0532663 43.0076433,46.6090452 C40.7458599,45.3447236 38.9229299,43.8070352 36.7286624,42.4060302 C36.4923567,42.2693467 36.2898089,42.0643216 35.9522293,41.8592965 L35.9522293,48.5567839 C36.3573248,48.5567839 36.7624204,48.5909548 37.2012739,48.5567839 C37.943949,48.5226131 38.3490446,48.7959799 38.2815287,49.6160804 C38.2815287,49.8211055 38.2815287,50.0261307 38.2815287,50.2311558 C38.2477707,50.9145729 38.3152866,51.4613065 38.9904459,51.9738693 C40.0369427,52.759799 39.8681529,54.2291457 38.7878981,55.0834171 C38.1127389,55.6301508 38.1127389,56.7236181 38.7878981,57.2703518 C39.9356688,58.1929648 40.0031847,59.6964824 38.8216561,60.5507538 C38.3828025,60.8582915 38.3152866,61.2 38.3152866,61.678392 C38.3490446,63.9336683 38.4503185,63.7628141 36.222293,63.7628141 C35.6146497,63.7628141 34.9732484,63.7628141 34.2305732,63.7628141 C34.2305732,64.3095477 34.2305732,64.8221106 34.2305732,65.3005025 C34.2305732,66.3939698 34.1292994,66.4964824 33.0828025,66.4964824 C32.1375796,66.4964824 31.2261146,66.4964824 30.2133758,66.4964824 C30.1796178,66.9407035 30.1458599,67.3507538 30.1458599,67.8291457 L28.6942675,67.8291457 C28.6605096,67.3849246 28.6605096,67.0090452 28.6267516,66.5648241 L23.2592357,66.5648241 C23.2254777,66.9748744 23.2254777,67.3849246 23.1917197,67.8291457 L21.9089172,67.8291457 C21.8751592,67.4190955 21.8751592,67.0432161 21.8414013,66.4964824 C20.8624204,66.4964824 19.8834395,66.4964824 18.9044586,66.4964824 C17.9254777,66.4964824 17.7904459,66.359799 17.7904459,65.3346734 C17.7904459,64.8562814 17.7904459,64.3778894 17.7904459,63.7286432 C16.8789809,63.7286432 16.0350318,63.7286432 15.1573248,63.7286432 C13.7057325,63.7286432 13.7057325,63.7286432 13.7057325,62.2251256 C13.7057325,62.0201005 13.6719745,61.8150754 13.7057325,61.6100503 C13.7732484,61.0974874 13.5707006,60.7899497 13.1656051,60.4824121 C12.0178344,59.6281407 12.0853503,58.1246231 13.1993631,57.2361809 C13.9420382,56.6552764 13.9420382,55.5959799 13.1993631,55.0150754 C12.0515924,54.0924623 12.0853503,52.6231156 13.233121,51.7005025 C13.4694268,51.5296482 13.6719745,51.1879397 13.7057325,50.9145729 C13.8070064,48.6934673 13.7732484,48.6934673 16.0350318,48.5226131 Z M12.1866242,14.8643216 C12.4229299,15.2060302 12.6254777,15.479397 12.8280255,15.7527638 C15.9675159,19.9899497 18.533121,23.3045226 22.077707,27.0974874 C23.4280255,28.8060302 24.9133758,29.6944724 27.0401274,29.2844221 C27.4789809,29.2160804 27.9853503,29.0452261 28.255414,28.7376884 C31.3273885,25.1839196 34.3993631,21.5959799 37.4038217,17.9738693 C38.8216561,16.2311558 40.0707006,14.3517588 41.4210191,12.5407035 C41.1847134,12.2331658 41.0496815,11.9939698 40.8471338,11.7547739 C33.2515924,2.11859296 18.8369427,2.05025126 11.1401274,11.6522613 C10.3974522,12.5748744 10.4312102,12.7457286 11.4101911,13.5316583 C15.022293,8.64522613 19.8159236,6.04824121 25.8923567,5.87738693 L25.8923567,7.24422111 C20.0184713,7.44924623 15.4611465,9.97788945 12.1866242,14.8643216 Z M42.2987261,13.8733668 C38.0789809,19.0331658 33.8929936,24.158794 29.6394904,29.318593 L32.711465,29.318593 L32.711465,30.6854271 L30.0783439,30.6854271 L30.0783439,32.0180905 C34.6019108,31.9497487 39.0242038,31.6080402 43.3452229,30.6170854 C43.5815287,30.5487437 43.8853503,30.2070352 43.9528662,29.9336683 C44.2904459,28.4984925 44.7292994,27.0633166 44.8643312,25.5939698 C45.3369427,21.3226131 44.3917197,17.4271357 42.2987261,13.8733668 Z M11.443949,16.2653266 C10.1949045,18.5547739 9.72229299,21.0834171 9.58726115,23.7145729 L8.33821656,23.7145729 C8.10191083,21.9718593 8.77707006,18.0422111 10.6,14.8301508 C10.3299363,14.4884422 10.0598726,14.078392 9.72229299,13.6341709 C6.98789809,18.3155779 6.24522293,23.1678392 7.46050955,28.3276382 C7.52802548,28.6351759 7.93312102,28.9768844 8.23694268,29.0452261 C10.7687898,29.6944724 13.3343949,30.3778894 15.9,30.8904523 C17.8242038,31.2663317 19.8159236,31.4371859 21.7738854,31.6763819 L21.7738854,30.5829146 L19.1745223,30.5829146 L19.1745223,29.1819095 L22.2802548,29.1819095 C18.6343949,24.9105528 15.056051,20.6050251 11.443949,16.2653266 Z M28.5929936,48.5226131 C28.6267516,48.3859296 28.6605096,48.2834171 28.6605096,48.2150754 C28.6605096,44.1487437 28.6605096,40.0824121 28.6605096,36.0160804 C28.6605096,35.7768844 28.5592357,35.5035176 28.4242038,35.3326633 C27.8840764,34.7517588 27.343949,34.1708543 26.7363057,33.6582915 C26.1961783,33.2140704 25.588535,33.1457286 25.0484076,33.7949749 C24.710828,34.2050251 24.3394904,34.5809045 23.9006369,34.9226131 C23.3605096,35.3326633 23.1917197,35.8452261 23.1917197,36.5286432 C23.2254777,40.0824121 23.1917197,43.6361809 23.1917197,47.1899497 C23.1917197,47.6341709 23.1917197,48.078392 23.1917197,48.5909548 C25.0484076,48.5226131 26.8038217,48.5226131 28.5929936,48.5226131 Z M8.23694268,30.8221106 C9.75605096,34.7175879 12.3216561,37.8271357 15.866242,40.0824121 C16.0350318,40.1849246 16.4738854,40.1165829 16.6426752,39.9457286 C18.0267516,38.7497487 19.3095541,37.4512563 20.7611465,36.3577889 C21.9426752,35.4693467 22.0101911,34.3758794 21.8076433,33.3165829 C17.2503185,32.4964824 12.7605096,31.6763819 8.23694268,30.8221106 Z M30.0783439,33.5899497 C29.8420382,34.6150754 30.044586,35.5035176 31.0235669,36.2552764 C32.4414013,37.3829146 33.7579618,38.6472362 35.1082803,39.8773869 C35.5133758,40.2532663 35.7834395,40.321608 36.256051,39.9798995 C39.0242038,38.1346734 41.1847134,35.7768844 42.7375796,32.838191 C42.8388535,32.6673367 42.8726115,32.4281407 42.9401274,32.3256281 C38.6528662,32.7356784 34.433121,33.1457286 30.0783439,33.5899497 Z M34.466879,48.5226131 C34.466879,46.9507538 34.466879,45.481407 34.466879,43.9778894 C34.466879,42.8844221 34.8044586,41.6884422 34.433121,40.8 C34.0280255,39.9115578 32.8802548,39.3306533 32.0700637,38.6130653 C31.4286624,38.0321608 30.7872611,37.4512563 30.0783439,36.8020101 L30.0783439,48.5226131 L34.466879,48.5226131 Z M21.8076433,48.5226131 L21.8076433,36.8703518 C20.356051,38.1346734 19.0057325,39.3306533 17.6216561,40.5266332 C17.4866242,40.6291457 17.3853503,40.8341709 17.3853503,41.0050251 C17.3853503,43.2603015 17.4191083,45.5155779 17.4191083,47.7708543 C17.4191083,48.0100503 17.4528662,48.2492462 17.4866242,48.4884422 L21.8076433,48.4884422 L21.8076433,48.5226131 Z M26.0273885,58.1929648 C22.3815287,58.1929648 18.7356688,58.1929648 15.056051,58.1929648 C14.8197452,58.1929648 14.5496815,58.1246231 14.3808917,58.2271357 C14.110828,58.3979899 13.9082803,58.7055276 13.6719745,58.9447236 C13.9082803,59.1497487 14.110828,59.4231156 14.3808917,59.559799 C14.5159236,59.6623116 14.7522293,59.5939698 14.9547771,59.5939698 C22.2464968,59.5939698 29.5719745,59.5939698 36.8636943,59.5939698 C37.133758,59.5939698 37.4038217,59.6623116 37.6063694,59.559799 C37.8426752,59.4572864 38.1127389,59.1497487 38.1127389,58.9788945 C38.0789809,58.7396985 37.8426752,58.4321608 37.6063694,58.2954774 C37.4038217,58.1929648 37.1,58.2271357 36.8636943,58.2271357 C33.2853503,58.1929648 29.6732484,58.1929648 26.0273885,58.1929648 Z M25.8585987,54.0924623 C29.5382166,54.0924623 33.2178344,54.0924623 36.8974522,54.0924623 C37.133758,54.0924623 37.4038217,54.160804 37.5726115,54.0582915 C37.8089172,53.8874372 38.1127389,53.6482412 38.1802548,53.3748744 C38.2140127,53.2040201 37.8764331,52.8964824 37.6401274,52.759799 C37.5050955,52.6572864 37.2687898,52.7256281 37.066242,52.7256281 C29.6732484,52.7256281 22.2802548,52.7256281 14.8872611,52.7256281 C14.6509554,52.7256281 14.3808917,52.6914573 14.2121019,52.7939698 C14.0095541,52.9306533 13.7732484,53.2040201 13.7732484,53.4432161 C13.7732484,53.6482412 14.0433121,53.921608 14.2458599,54.0582915 C14.4484076,54.160804 14.7522293,54.1266332 14.988535,54.1266332 C18.6006369,54.0924623 22.2127389,54.0924623 25.8585987,54.0924623 Z M15.0898089,62.2934673 L36.7961783,62.2934673 L36.7961783,61.0291457 L15.0898089,61.0291457 L15.0898089,62.2934673 Z M15.0898089,56.7919598 L36.7961783,56.7919598 L36.7961783,55.5276382 L15.0898089,55.5276382 L15.0898089,56.7919598 Z M15.0898089,51.2562814 L36.7961783,51.2562814 L36.7961783,49.9919598 L15.0898089,49.9919598 L15.0898089,51.2562814 Z M19.1745223,65.0271357 L32.711465,65.0271357 L32.711465,63.7628141 L19.1745223,63.7628141 L19.1745223,65.0271357 Z M28.6267516,30.719598 C28.5592357,30.6512563 28.4917197,30.5829146 28.4242038,30.5145729 C27.5127389,31.3005025 27.8503185,30.9929648 26.9388535,31.7788945 C26.9726115,31.8472362 27.0063694,31.881407 27.0401274,31.9497487 L28.5929936,31.9497487 L28.5929936,30.719598 L28.6267516,30.719598 Z M24.710828,31.8472362 C24.3057325,31.3346734 24.1031847,30.5145729 23.2592357,30.6854271 L23.2592357,31.7788945 C23.7993631,31.8130653 24.2719745,31.8472362 24.710828,31.8472362 Z" id="Shape"></path>
                </g>
                <path d="M16.6389528,43.5731077 C16.6389528,43.5731077 13.0085775,50.4235651 14.263941,51.3347096 C15.5193044,52.2458542 15.8585918,53.7981746 28.7515134,43.5731077 C41.6444351,33.3480409 50.3641216,19.7146184 52.6034185,16.2387706 C54.8427154,12.7629228 56.6748674,8.13970774 55.7587914,7.36354755 C54.8427154,6.58738736 52.4677035,7.0260866 49.651618,8.94961403 C46.8355325,10.8731415 46.1569577,11.3118407 46.1569577,11.3118407" id="Shape" stroke="#000000" stroke-width="4" stroke-linecap="round"></path>
                <path d="M52.3610472,43.5731077 C52.3610472,43.5731077 55.9914225,50.4235651 54.736059,51.3347096 C53.4806956,52.2458542 53.1414082,53.7981746 40.2484866,43.5731077 C27.3555649,33.3480409 18.6358784,19.7146184 16.3965815,16.2387706 C14.1572846,12.7629228 12.3251326,8.13970774 13.2412086,7.36354755 C14.1572846,6.58738736 16.5322965,7.0260866 19.348382,8.94961403 C22.1644675,10.8731415 22.8430423,11.3118407 22.8430423,11.3118407" id="Shape" stroke="#000000" stroke-width="4"></path>
                <path d="M40,6 C38.9,6 38,5.1 38,4 C38,2.9 38.9,2 40,2 C41.1,2 42,2.9 42,4 C42,5.1 41.1333333,6 40,6 Z M40,3.33333333 C39.6333333,3.33333333 39.3333333,3.63333333 39.3333333,4 C39.3333333,4.36666667 39.6333333,4.66666667 40,4.66666667 C40.3666667,4.66666667 40.6666667,4.36666667 40.6666667,4 C40.6666667,3.63333333 40.4,3.33333333 40,3.33333333 Z" id="Shape" fill="#000000" fill-rule="nonzero"></path>
                <path d="M60,47 C58.9,47 58,46.1 58,45 C58,43.9 58.9,43 60,43 C61.1,43 62,43.9 62,45 C62,46.1 61.1333333,47 60,47 Z M60,44.3333333 C59.6333333,44.3333333 59.3333333,44.6333333 59.3333333,45 C59.3333333,45.3666667 59.6333333,45.6666667 60,45.6666667 C60.3666667,45.6666667 60.6666667,45.3666667 60.6666667,45 C60.6666667,44.6333333 60.4,44.3333333 60,44.3333333 Z" id="Shape" fill="#000000" fill-rule="nonzero"></path>
                <path d="M8,62 C6.9,62 6,61.1 6,60 C6,58.9 6.9,58 8,58 C9.1,58 10,58.9 10,60 C10,61.1 9.13333333,62 8,62 Z M8,59.3333333 C7.63333333,59.3333333 7.33333333,59.6333333 7.33333333,60 C7.33333333,60.3666667 7.63333333,60.6666667 8,60.6666667 C8.36666667,60.6666667 8.66666667,60.3666667 8.66666667,60 C8.66666667,59.6333333 8.4,59.3333333 8,59.3333333 Z" id="Shape" fill="#000000" fill-rule="nonzero"></path>
                <g id="Group" transform="translate(0.000000, 25.000000)" fill-rule="nonzero" fill="#EE5061">
                    <path d="M3.27272727,4 C3.09090909,4 2.90909091,3.92727273 2.76363636,3.78181818 L0.545454545,1.56363636 C0.254545455,1.27272727 0.254545455,0.836363636 0.545454545,0.545454545 C0.836363636,0.254545455 1.27272727,0.254545455 1.56363636,0.545454545 L3.78181818,2.76363636 C4.07272727,3.05454545 4.07272727,3.49090909 3.78181818,3.78181818 C3.63636364,3.92727273 3.45454545,4 3.27272727,4 Z" id="Shape"></path>
                    <path d="M1.05454545,4 C0.872727273,4 0.690909091,3.92727273 0.545454545,3.78181818 C0.254545455,3.49090909 0.254545455,3.05454545 0.545454545,2.76363636 L2.76363636,0.545454545 C3.05454545,0.254545455 3.49090909,0.254545455 3.78181818,0.545454545 C4.07272727,0.836363636 4.07272727,1.27272727 3.78181818,1.56363636 L1.56363636,3.78181818 C1.41818182,3.92727273 1.23636364,4 1.05454545,4 Z" id="Shape"></path>
                </g>
                <g id="Group" transform="translate(64.000000, 33.000000)" fill-rule="nonzero" fill="#EE5061">
                    <path d="M3.12727273,4 C2.94545455,4 2.76363636,3.92727273 2.61818182,3.78181818 L0.4,1.56363636 C0.109090909,1.27272727 0.109090909,0.836363636 0.4,0.545454545 C0.690909091,0.254545455 1.12727273,0.254545455 1.41818182,0.545454545 L3.63636364,2.76363636 C3.92727273,3.05454545 3.92727273,3.49090909 3.63636364,3.78181818 C3.49090909,3.92727273 3.30909091,4 3.12727273,4 Z" id="Shape"></path>
                    <path d="M0.909090909,4 C0.727272727,4 0.545454545,3.92727273 0.4,3.78181818 C0.109090909,3.49090909 0.109090909,3.05454545 0.4,2.76363636 L2.61818182,0.545454545 C2.90909091,0.254545455 3.34545455,0.254545455 3.63636364,0.545454545 C3.92727273,0.836363636 3.92727273,1.27272727 3.63636364,1.56363636 L1.41818182,3.78181818 C1.30909091,3.92727273 1.12727273,4 0.909090909,4 Z" id="Shape"></path>
                </g>
                <g id="Group" transform="translate(60.000000, 17.000000)" fill-rule="nonzero" fill="#EE5061">
                    <path d="M4.5,3 C4.35714286,3.14285714 4.17857143,3.21428571 4,3.21428571 L0.928571429,3.21428571 C0.535714286,3.21428571 0.214285714,2.89285714 0.214285714,2.5 C0.214285714,2.10714286 0.535714286,1.78571429 0.928571429,1.78571429 L4,1.78571429 C4.39285714,1.78571429 4.71428571,2.10714286 4.71428571,2.5 C4.71428571,2.67857143 4.64285714,2.85714286 4.5,3 Z" id="Shape"></path>
                    <path d="M2.96428571,4.53571429 C2.82142857,4.67857143 2.64285714,4.75 2.46428571,4.75 C2.07142857,4.75 1.75,4.42857143 1.75,4.03571429 L1.75,0.964285714 C1.75,0.571428571 2.07142857,0.25 2.46428571,0.25 C2.85714286,0.25 3.17857143,0.571428571 3.17857143,0.964285714 L3.17857143,4.03571429 C3.17857143,4.21428571 3.10714286,4.39285714 2.96428571,4.53571429 Z" id="Shape"></path>
                </g>
                <g id="Group" transform="translate(1.000000, 43.000000)" fill-rule="nonzero" fill="#EE5061">
                    <path d="M3.78461538,2.46153846 C3.66153846,2.58461538 3.50769231,2.64615385 3.35384615,2.64615385 L0.707692308,2.64615385 C0.369230769,2.64615385 0.0923076923,2.36923077 0.0923076923,2.03076923 C0.0923076923,1.69230769 0.369230769,1.41538462 0.707692308,1.41538462 L3.35384615,1.41538462 C3.69230769,1.41538462 3.96923077,1.69230769 3.96923077,2.03076923 C3.96923077,2.21538462 3.90769231,2.36923077 3.78461538,2.46153846 Z" id="Shape"></path>
                    <path d="M2.46153846,3.78461538 C2.33846154,3.90769231 2.18461538,3.96923077 2.03076923,3.96923077 C1.69230769,3.96923077 1.41538462,3.69230769 1.41538462,3.35384615 L1.41538462,0.707692308 C1.41538462,0.369230769 1.69230769,0.0923076923 2.03076923,0.0923076923 C2.36923077,0.0923076923 2.64615385,0.369230769 2.64615385,0.707692308 L2.64615385,3.35384615 C2.64615385,3.53846154 2.58461538,3.69230769 2.46153846,3.78461538 Z" id="Shape"></path>
                </g>
                <g id="Group" transform="translate(20.000000, 0.000000)" fill-rule="nonzero" fill="#EE5061">
                    <path d="M3.69230769,3 C3.56923077,3.14285714 3.41538462,3.21428571 3.26153846,3.21428571 L0.615384615,3.21428571 C0.276923077,3.21428571 0,2.89285714 0,2.5 C0,2.10714286 0.276923077,1.78571429 0.615384615,1.78571429 L3.26153846,1.78571429 C3.6,1.78571429 3.87692308,2.10714286 3.87692308,2.5 C3.87692308,2.67857143 3.78461538,2.85714286 3.69230769,3 Z" id="Shape"></path>
                    <path d="M2.36923077,4.53571429 C2.24615385,4.67857143 2.09230769,4.75 1.93846154,4.75 C1.6,4.75 1.32307692,4.42857143 1.32307692,4.03571429 L1.32307692,0.928571429 C1.32307692,0.535714286 1.6,0.214285714 1.93846154,0.214285714 C2.27692308,0.214285714 2.55384615,0.535714286 2.55384615,0.928571429 L2.55384615,4 C2.52307692,4.21428571 2.46153846,4.39285714 2.36923077,4.53571429 Z" id="Shape"></path>
                </g>
                <g id="Group" transform="translate(55.000000, 58.000000)" fill-rule="nonzero" fill="#EE5061">
                    <path d="M4.5,2.36923077 C4.35714286,2.49230769 4.17857143,2.55384615 4,2.55384615 L0.928571429,2.55384615 C0.535714286,2.55384615 0.214285714,2.27692308 0.214285714,1.93846154 C0.214285714,1.6 0.535714286,1.32307692 0.928571429,1.32307692 L4,1.32307692 C4.39285714,1.32307692 4.71428571,1.6 4.71428571,1.93846154 C4.71428571,2.09230769 4.64285714,2.24615385 4.5,2.36923077 Z" id="Shape"></path>
                    <path d="M2.96428571,3.69230769 C2.82142857,3.81538462 2.64285714,3.87692308 2.46428571,3.87692308 C2.07142857,3.87692308 1.75,3.6 1.75,3.26153846 L1.75,0.615384615 C1.75,0.276923077 2.07142857,0 2.46428571,0 C2.85714286,0 3.17857143,0.276923077 3.17857143,0.615384615 L3.17857143,3.26153846 C3.17857143,3.41538462 3.10714286,3.56923077 2.96428571,3.69230769 Z" id="Shape"></path>
                </g>
                <g id="Group" transform="translate(4.000000, 12.000000)" fill-rule="nonzero" fill="#EE5061">
                    <path d="M3.78461538,2.43076923 C3.66153846,2.55384615 3.50769231,2.61538462 3.35384615,2.61538462 L0.707692308,2.61538462 C0.369230769,2.61538462 0.0923076923,2.33846154 0.0923076923,2 C0.0923076923,1.66153846 0.369230769,1.38461538 0.707692308,1.38461538 L3.35384615,1.38461538 C3.69230769,1.38461538 3.96923077,1.66153846 3.96923077,2 C3.96923077,2.15384615 3.90769231,2.30769231 3.78461538,2.43076923 Z" id="Shape"></path>
                    <path d="M2.46153846,3.75384615 C2.33846154,3.87692308 2.18461538,3.93846154 2.03076923,3.93846154 C1.69230769,3.93846154 1.41538462,3.66153846 1.41538462,3.32307692 L1.41538462,0.676923077 C1.41538462,0.338461538 1.69230769,0.0615384615 2.03076923,0.0615384615 C2.36923077,0.0615384615 2.64615385,0.338461538 2.64615385,0.676923077 L2.64615385,3.32307692 C2.64615385,3.47692308 2.58461538,3.63076923 2.46153846,3.75384615 Z" id="Shape"></path>
                </g>
            </g>
        </g>
    </g>
</svg>