<svg height="74" viewBox="0 0 68 74" width="68" xmlns="http://www.w3.org/2000/svg"><g fill="none" fill-rule="evenodd"><path d="m16.0350318 48.5226131v-6.6633166c-.7426751.5467337-1.3840764 1.0934673-2.0592356 1.5035176-1.789172 1.0934673-3.3757962 2.3236181-5.2324841 3.280402-.67515923.4783919-1.55286624.6492462-2.63312102.5809045-.97898089-.0683417-2.05923567-.8884422-1.99171974-1.9135678.06751592-.8884422.27006369-1.7427136.64140127-2.5628141.74267516-1.7085427 1.58662421-3.3829146 2.53184714-4.9889447h.03375796c.57388535.4442211.06751592.0683417.67515923.5125628-.03375796.0341708-.13503184.8201005-.16878981.8542713-.74267516 1.6743719-1.21528662 2.7336684-1.92420382 4.4080402-.13503185.3417086-.33757962 1.2984925-.30382165 1.6743719.03375796.9226131.97898089.8884422 1.85668789.7175879.37133758-.0683417.77643313-.1708542 1.11401274-.3758794 2.19426751-1.3326633 4.38853501-2.6994974 6.71783441-4.1688442-1.1477707-.8542713-.7764331-.6150754-2.8019108-1.879397-3.00445864-1.8452261-4.96242042-4.920603-5.63757966-8.4060301-.16878981-.8884422-.50636942-1.1959799-1.11401274-1.5035176-1.38407643-.7175879-2.83566879-1.401005-4.01719745-2.3919598-2.36305732-1.9477387-2.22802548-4.4422111.23630573-6.2532663.64140128-.478392 1.38407644-.8542714 2.1267516-1.2643216.33757961-.2050252.77643312-.0341709.94522293.3075376.13503184.3075377.03375796.717588-.2700637.8884423-.67515923.3758794-1.35031847.7517588-1.95796178 1.1959799-1.51910828 1.1276382-1.51910828 3.041206-.03375796 4.203015.94522293.717588 1.99171974 1.2984925 3.20700637 2.0502513-.13503185-.9567839-.23630574-1.6743719-.30382166-2.357789-.50636943-4.6472361.47261146-8.9527638 2.83566879-12.9165829.23630573-.4100502.23630573-.8884422 0-1.2984924-1.28280255-2.25527641-2.53184713-4.54472365-3.7133758-6.86834174-.40509554-.8201005-.54012739-1.81105528-.64140127-2.73366834-.10127389-1.02512563.67515924-1.81105528 1.68789809-1.77688442.877707.03417085 1.82292993.27336683 2.63312102.58090452 1.04649681.41005025 2.05923569.95678392 3.03821659 1.5718593 1.2152866.75175879 2.3968153 1.60603015 3.6121019 2.4603015-.911465.61507538-.877707.58090453-1.6541401.06834171-1.6878981-1.05929648-3.3420383-2.15276382-5.06369432-3.10954774-.57388535-.34170854-1.35031847-.71758794-1.99171974-.13668341-.64140128.58090452-.4388535 1.36683417-.23630573 2.11859296.67515923 2.66532663 2.09299363 4.92060302 3.54458598 7.31256286 4.21974521-5.22814075 9.58726111-8.09849251 16.23757961-8.09849251s12.0178344 2.87035176 16.2375796 8.09849251c1.4178344-2.35778899 2.8694268-4.64723623 3.544586-7.278392.1687898-.71758794.4050956-1.53768845-.2363057-2.11859297-.6751593-.61507538-1.4515924-.20502512-2.0592357.13668342-1.6878981.95678392-3.3420382 1.94773869-4.9286624 3.04120603-.6076433.41005025-1.0802548.54673367-1.789172 0 1.1815287-.8201005 2.2617835-1.70854272 3.510828-2.3919598 1.5528663-.85427136 3.1732485-1.64020101 4.8611465-2.15276382 1.9917198-.58090452 3.0719746.54673367 2.5318472 2.59698492-.3713376 1.40100503-.911465 2.7678392-1.5528663 4.06633166-.810191 1.60603015-1.8229299 3.10954776-2.7006369 4.68140706-.1350319.2733668-.2363057.7517588-.1012739.9567839 3.1057325 5.2964824 3.8821656 10.8663317 2.2280255 16.8120603-.033758.0683417 0 .1708543-.033758.4442211.7764331-.2733668 1.4853503-.4442211 2.1605096-.7859296 1.0802548-.5809046 2.1605095-1.1276382 3.1057325-1.9135679 1.1477707-.9567839 1.1815286-2.1185929.0675159-3.1095477-.9452229-.8542714-2.0592357-1.5718593-3.2070064-2.3919598-.2363057-.1708543-.3038216-.4442211-.2025478-.717588.1350319-.3417085.5063695-.4783919.8101911-.3417085 1.4853503.6834171 2.8356688 1.5035176 3.8484077 2.7678392 1.2828025 1.6060301 1.1140127 3.4512563-.4050956 4.920603-1.3503184 1.2643216-2.9707006 2.0502513-4.6923567 2.4944724-1.4853503.4100502-2.4305732 1.1276382-3.1057324 2.5969849-1.3840765 2.9045226-3.578344 5.1939698-6.211465 7.0733668-.2363057.1708543-.5063694.3758794-.8101911.5809046 2.2280255 1.7085427 4.3547771 3.3829145 6.8866242 4.442211.3038217.1366834.6414013.239196.9789809.2733668.6751592.1025126 1.1477707-.2391959 1.1477707-.922613s-.033758-1.401005-.2700637-2.0160804c-.7089172-1.6743719-1.5191083-3.3145729-2.2955414-4.9547739-.2025478-.4442211.1350319-.9567839.6076433-.9226131.6751593.0683417.9789809.6492463 1.2828026 1.4010051.7764331 1.9135678 1.6878981 3.8271356 2.4643312 5.7407035.1350318.3417085.1350318.7859296.1350318 1.1959799 0 1.0592965-1.0802548 1.7768844-2.0929936 1.879397-1.1815287.1025125-1.8566879-.2733669-2.666879-.717588-2.2617834-1.2643216-4.0847134-2.80201-6.2789809-4.203015-.2363057-.1366835-.4388535-.3417086-.7764331-.5467337v6.6974874c.4050955 0 .8101911.0341709 1.2490446 0 .7426751-.0341708 1.1477707.239196 1.0802548 1.0592965v.6150754c-.033758.6834171.0337579 1.2301507.7089172 1.7427135 1.0464968.7859297.877707 2.2552764-.2025478 3.1095478-.6751592.5467337-.6751592 1.640201 0 2.1869347 1.1477707.922613 1.2152866 2.4261306.033758 3.280402-.4388536.3075377-.5063695.6492462-.5063695 1.1276382.033758 2.2552763.1350319 2.0844221-2.0929936 2.0844221-.6076433 0-1.2490446 0-1.9917198 0v1.5376884c0 1.0934673-.1012738 1.1959799-1.1477707 1.1959799-.9452229 0-1.8566879 0-2.8694267 0-.033758.4442211-.0675159.8542714-.0675159 1.3326633h-1.4515924c-.0337579-.4442211-.0337579-.8201005-.0675159-1.2643216h-5.3675159c-.033758.4100503-.033758.8201005-.067516 1.2643216h-1.2828025c-.033758-.4100502-.033758-.7859296-.0675159-1.3326633-.9789809 0-1.9579618 0-2.9369427 0s-1.1140127-.1366834-1.1140127-1.161809c0-.478392 0-.956784 0-1.6060302-.911465 0-1.7554141 0-2.6331211 0-1.4515923 0-1.4515923 0-1.4515923-1.5035176 0-.2050251-.033758-.4100502 0-.6150753.0675159-.5125629-.1350319-.8201006-.5401274-1.1276382-1.1477707-.8542714-1.0802548-2.357789.033758-3.2462312.7426751-.5809045.7426751-1.640201 0-2.2211055-1.1477707-.9226131-1.1140128-2.3919598.0337579-3.3145729.2363058-.1708543.4388535-.5125628.4726115-.7859296.1012739-2.2211056.0675159-2.2211056 2.3292993-2.3919598zm-3.8484076-33.6582915c.2363057.3417086.4388535.6150754.6414013.8884422 3.1394904 4.2371859 5.7050955 7.5517588 9.2496815 11.3447236 1.3503185 1.7085428 2.8356688 2.596985 4.9624204 2.1869347.4388535-.0683417.9452229-.239196 1.2152866-.5467337 3.0719745-3.5537688 6.1439491-7.1417085 9.1484077-10.7638191 1.4178344-1.7427135 2.6668789-3.6221105 4.0171974-5.4331658-.2363057-.3075377-.3713376-.5467337-.5738853-.7859296-7.5955414-9.63618094-22.0101911-9.70452264-29.7070064-.1025126-.7426752.9226131-.7089172 1.0934673.2700637 1.879397 3.6121019-4.88643217 8.4057325-7.48341709 14.4821656-7.65427137v1.36683418c-5.8738854.20502512-10.4312102 2.73366834-13.7057325 7.62010049zm30.1121019-.9909548c-4.2197452 5.159799-8.4057325 10.2854272-12.6592357 15.4452262h3.0719746v1.3668341h-2.6331211v1.3326634c4.5235669-.0683418 8.9458599-.4100503 13.266879-1.4010051.2363058-.0683417.5401274-.4100502.6076433-.6834171.3375797-1.4351758.7764332-2.8703517.911465-4.3396985.4726115-4.2713567-.4726115-8.1668341-2.5656051-11.720603zm-30.8547771 2.3919598c-1.2490445 2.2894473-1.72165601 4.8180905-1.85668785 7.4492463h-1.24904459c-.23630573-1.7427136.4388535-5.6723618 2.26178344-8.8844221-.2700637-.3417086-.5401274-.7517588-.87770701-1.1959799-2.7343949 4.681407-3.47707006 9.5336683-2.26178344 14.6934673.06751593.3075377.47261147.6492462.77643313.7175879 2.53184712.6492463 5.09745222 1.3326633 7.66305732 1.8452262 1.9242038.3758794 3.9159236.5467336 5.8738854.7859296v-1.0934673h-2.5993631v-1.4010051h3.1057325c-3.6458599-4.2713567-7.2242038-8.5768844-10.8363058-12.9165829zm17.1490446 32.2572865c.033758-.1366835.067516-.239196.067516-.3075377 0-4.0663317 0-8.1326633 0-12.198995 0-.239196-.1012739-.5125628-.2363058-.6834171-.5401274-.5809045-1.0802548-1.161809-1.6878981-1.6743718-.5401274-.4442211-1.1477707-.5125629-1.6878981.1366834-.3375796.4100502-.7089172.7859296-1.1477707 1.1276382-.5401273.4100502-.7089172.922613-.7089172 1.6060301.033758 3.5537689 0 7.1075377 0 10.6613065v1.4010051c1.8566879-.0683417 3.612102-.0683417 5.4012739-.0683417zm-20.35605092-17.7005025c1.51910828 3.8954773 4.08471342 7.0050251 7.62929932 9.2603015.1687898.1025125.6076434.0341708.7764332-.1366835 1.3840764-1.1959799 2.6668789-2.4944723 4.1184713-3.5879397 1.1815287-.8884422 1.2490446-1.9819095 1.0464968-3.041206-4.5573248-.8201005-9.0471337-1.640201-13.57070062-2.4944723zm21.84140122 2.7678391c-.2363057 1.0251257-.0337579 1.9135679.945223 2.6653267 1.4178344 1.1276382 2.7343949 2.3919598 4.0847134 3.6221105.4050955.3758794.6751592.4442211 1.1477707.1025126 2.7681528-1.8452261 4.9286624-4.2030151 6.4815286-7.1417085.1012739-.1708543.1350319-.4100503.2025478-.5125629-4.2872612.4100503-8.5070064.8201005-12.8617835 1.2643216zm4.3885351 14.9326634c0-1.5718593 0-3.0412061 0-4.5447237 0-1.0934673.3375796-2.2894472-.033758-3.1778894-.4050955-.8884422-1.5528662-1.4693467-2.3630573-2.1869347-.6414013-.5809045-1.2828026-1.161809-1.9917198-1.8110552v11.720603zm-12.6592357 0v-11.6522613c-1.4515923 1.2643216-2.8019108 2.4603015-4.1859872 3.6562814-.1350319.1025125-.2363058.3075377-.2363058.4783919 0 2.2552764.033758 4.5105528.033758 6.7658292 0 .239196.0337579.4783919.0675159.7175879h4.3210191zm4.2197452 9.6703517c-3.6458598 0-7.2917197 0-10.9713375 0-.2363058 0-.5063695-.0683417-.6751593.0341709-.2700637.1708542-.4726114.4783919-.7089172.7175879.2363058.2050251.4388535.478392.7089172.6150754.1350319.1025126.3713376.0341708.5738854.0341708h21.9089172c.2700637 0 .5401274.0683418.7426751-.0341708.2363058-.1025126.5063695-.4100503.5063695-.5809045-.033758-.239196-.2700637-.5467337-.5063695-.6834171-.2025477-.1025126-.5063694-.0683417-.7426751-.0683417-3.578344-.0341709-7.1904459-.0341709-10.8363058-.0341709zm-.1687898-4.1005025h11.0388535c.2363058 0 .5063695.0683417.6751593-.0341708.2363057-.1708543.5401274-.4100503.6076433-.6834171.0337579-.1708543-.3038217-.478392-.5401274-.6150754-.1350319-.1025126-.3713376-.0341709-.5738854-.0341709-7.3929936 0-14.7859872 0-22.1789809 0-.2363057 0-.5063694-.0341708-.6751592.0683417-.2025478.1366835-.4388535.4100503-.4388535.6492463 0 .2050251.2700637.4783919.4726115.6150754.2025477.1025125.5063694.0683417.7426751.0683417 3.6121019-.0341709 7.2242039-.0341709 10.8700637-.0341709zm-10.7687898 8.201005h21.7063694v-1.2643216h-21.7063694zm0-5.5015075h21.7063694v-1.2643216h-21.7063694zm0-5.5356784h21.7063694v-1.2643216h-21.7063694zm4.0847134 13.7708543h13.5369427v-1.2643216h-13.5369427zm9.4522293-34.3075377c-.0675159-.0683417-.1350319-.1366834-.2025478-.2050251-.9114649.7859296-.5738853.4783919-1.4853503 1.2643216.033758.0683417.0675159.1025125.1012739.1708542h1.5528662v-1.2301507zm-3.9159236 1.1276382c-.4050955-.5125628-.6076433-1.3326633-1.4515923-1.1618091v1.0934674c.5401274.0341708 1.0127388.0683417 1.4515923.0683417z" fill="#000" fill-rule="nonzero" transform="translate(8 6)"/><path d="m16.6389528 43.5731077s-3.6303753 6.8504574-2.3750118 7.7616019c1.2553634.9111446 1.5946508 2.463465 14.4875724-7.7616019 12.8929217-10.2250668 21.6126082-23.8584893 23.8519051-27.3343371s4.0714489-8.09906286 3.1553729-8.87522305-3.2910879-.33746095-6.1071734 1.58606648c-2.8160855 1.92352747-3.4946603 2.36222667-3.4946603 2.36222667" stroke="#000" stroke-linecap="round" stroke-width="4"/><path d="m52.3610472 43.5731077s3.6303753 6.8504574 2.3750118 7.7616019c-1.2553634.9111446-1.5946508 2.463465-14.4875724-7.7616019-12.8929217-10.2250668-21.6126082-23.8584893-23.8519051-27.3343371s-4.0714489-8.09906286-3.1553729-8.87522305 3.2910879-.33746095 6.1071734 1.58606648c2.8160855 1.92352747 3.4946603 2.36222667 3.4946603 2.36222667" stroke="#000" stroke-width="4"/><g fill-rule="nonzero"><path d="m40 6c-1.1 0-2-.9-2-2s.9-2 2-2 2 .9 2 2-.8666667 2-2 2zm0-2.66666667c-.3666667 0-.6666667.3-.6666667.66666667s.3.66666667.6666667.66666667.6666667-.3.6666667-.66666667-.2666667-.66666667-.6666667-.66666667z" fill="#000"/><path d="m60 47c-1.1 0-2-.9-2-2s.9-2 2-2 2 .9 2 2-.8666667 2-2 2zm0-2.6666667c-.3666667 0-.6666667.3-.6666667.6666667s.3.6666667.6666667.6666667.6666667-.3.6666667-.6666667-.2666667-.6666667-.6666667-.6666667z" fill="#000"/><path d="m8 62c-1.1 0-2-.9-2-2s.9-2 2-2 2 .9 2 2-.86666667 2-2 2zm0-2.6666667c-.36666667 0-.66666667.3-.66666667.6666667s.3.6666667.66666667.6666667.66666667-.3.66666667-.6666667-.26666667-.6666667-.66666667-.6666667z" fill="#000"/><g fill="#ee5061" transform="translate(0 25)"><path d="m3.27272727 4c-.18181818 0-.36363636-.07272727-.50909091-.21818182l-2.21818181-2.21818182c-.2909091-.29090909-.2909091-.72727272 0-1.01818181.29090909-.2909091.72727272-.2909091 1.01818181 0l2.21818182 2.21818181c.29090909.29090909.29090909.72727273 0 1.01818182-.14545454.14545455-.32727273.21818182-.50909091.21818182z"/><path d="m1.05454545 4c-.18181818 0-.36363636-.07272727-.5090909-.21818182-.2909091-.29090909-.2909091-.72727273 0-1.01818182l2.21818181-2.21818181c.29090909-.2909091.72727273-.2909091 1.01818182 0 .29090909.29090909.29090909.72727272 0 1.01818181l-2.21818182 2.21818182c-.14545454.14545455-.32727272.21818182-.50909091.21818182z"/></g><g fill="#ee5061" transform="translate(64 33)"><path d="m3.12727273 4c-.18181818 0-.36363637-.07272727-.50909091-.21818182l-2.21818182-2.21818182c-.29090909-.29090909-.29090909-.72727272 0-1.01818181.29090909-.2909091.72727273-.2909091 1.01818182 0l2.21818182 2.21818181c.29090909.29090909.29090909.72727273 0 1.01818182-.14545455.14545455-.32727273.21818182-.50909091.21818182z"/><path d="m.90909091 4c-.18181818 0-.36363636-.07272727-.50909091-.21818182-.29090909-.29090909-.29090909-.72727273 0-1.01818182l2.21818182-2.21818181c.29090909-.2909091.72727273-.2909091 1.01818182 0 .29090909.29090909.29090909.72727272 0 1.01818181l-2.21818182 2.21818182c-.10909091.14545455-.29090909.21818182-.50909091.21818182z"/></g><g fill="#ee5061" transform="translate(60 17)"><path d="m4.5 3c-.14285714.14285714-.32142857.21428571-.5.21428571h-3.07142857c-.39285714 0-.71428572-.32142857-.71428572-.71428571s.32142858-.71428571.71428572-.71428571h3.07142857c.39285714 0 .71428571.32142857.71428571.71428571 0 .17857143-.07142857.35714286-.21428571.5z"/><path d="m2.96428571 4.53571429c-.14285714.14285714-.32142857.21428571-.5.21428571-.39285714 0-.71428571-.32142857-.71428571-.71428571v-3.07142858c0-.39285714.32142857-.71428571.71428571-.71428571.39285715 0 .71428572.32142857.71428572.71428571v3.07142858c0 .17857142-.07142857.35714285-.21428572.5z"/></g><g fill="#ee5061" transform="translate(1 43)"><path d="m3.78461538 2.46153846c-.12307692.12307692-.27692307.18461539-.43076923.18461539h-2.64615384c-.33846154 0-.61538462-.27692308-.61538462-.61538462s.27692308-.61538461.61538462-.61538461h2.64615384c.33846154 0 .61538462.27692307.61538462.61538461 0 .18461539-.06153846.33846154-.18461539.43076923z"/><path d="m2.46153846 3.78461538c-.12307692.12307693-.27692308.18461539-.43076923.18461539-.33846154 0-.61538461-.27692308-.61538461-.61538462v-2.64615384c0-.33846154.27692307-.61538462.61538461-.61538462s.61538462.27692308.61538462.61538462v2.64615384c0 .18461539-.06153847.33846154-.18461539.43076923z"/></g><g fill="#ee5061" transform="translate(20)"><path d="m3.69230769 3c-.12307692.14285714-.27692307.21428571-.43076923.21428571h-2.64615384c-.33846154 0-.61538462-.32142857-.61538462-.71428571s.27692308-.71428571.61538462-.71428571h2.64615384c.33846154 0 .61538462.32142857.61538462.71428571 0 .17857143-.0923077.35714286-.18461539.5z"/><path d="m2.36923077 4.53571429c-.12307692.14285714-.27692308.21428571-.43076923.21428571-.33846154 0-.61538462-.32142857-.61538462-.71428571v-3.10714286c0-.39285714.27692308-.71428572.61538462-.71428572s.61538461.32142858.61538461.71428572v3.07142857c-.03076923.21428571-.09230769.39285714-.18461538.53571429z"/></g><g fill="#ee5061" transform="translate(55 58)"><path d="m4.5 2.36923077c-.14285714.12307692-.32142857.18461538-.5.18461538h-3.07142857c-.39285714 0-.71428572-.27692307-.71428572-.61538461s.32142858-.61538462.71428572-.61538462h3.07142857c.39285714 0 .71428571.27692308.71428571.61538462 0 .15384615-.07142857.30769231-.21428571.43076923z"/><path d="m2.96428571 3.69230769c-.14285714.12307693-.32142857.18461539-.5.18461539-.39285714 0-.71428571-.27692308-.71428571-.61538462v-2.64615384c0-.33846154.32142857-.61538462.71428571-.61538462.39285715 0 .71428572.27692308.71428572.61538462v2.64615384c0 .15384616-.07142857.30769231-.21428572.43076923z"/></g><g fill="#ee5061" transform="translate(4 12)"><path d="m3.78461538 2.43076923c-.12307692.12307692-.27692307.18461539-.43076923.18461539h-2.64615384c-.33846154 0-.61538462-.27692308-.61538462-.61538462s.27692308-.61538462.61538462-.61538462h2.64615384c.33846154 0 .61538462.27692308.61538462.61538462 0 .15384615-.06153846.30769231-.18461539.43076923z"/><path d="m2.46153846 3.75384615c-.12307692.12307693-.27692308.18461539-.43076923.18461539-.33846154 0-.61538461-.27692308-.61538461-.61538462v-2.64615384c0-.33846154.27692307-.61538462.61538461-.61538462s.61538462.27692308.61538462.61538462v2.64615384c0 .15384616-.06153847.30769231-.18461539.43076923z"/></g></g></g></svg>