<svg height="75" viewBox="0 0 75 75" width="75" xmlns="http://www.w3.org/2000/svg"><g fill="none" fill-rule="evenodd"><rect fill="#fff" fill-rule="evenodd" height="75" rx="37.5" width="75"/><rect height="74" rx="37" stroke="#9b9b9b" width="74" x=".5" y=".5"/><g fill="#000" fill-rule="nonzero"><g transform="translate(16 17)"><path d="m26.5503132 11.0539207-1.9640919-.3331942c-.2045929-.6605428-.4676409-1.29770354-.7891441-1.90563673l1.1574113-1.61920668c.491023-.68977036.4150313-1.6308977-.1870563-2.22713987l-1.7419625-1.74196243c-.3273486-.32734864-.7599165-.5085595-1.2217119-.5085595-.3624217 0-.7073069.11106472-.9995824.32150314l-1.6250522 1.15741127c-.6313153-.33319416-1.2918581-.60793319-1.9757829-.8125261l-.3273487-1.94070981c-.1402922-.83590814-.8592901-1.44384133-1.7068893-1.44384133h-2.4609603c-.8475992 0-1.5665971.60793319-1.7068894 1.44384133l-.3390397 1.98747391c-.6546972.2045929-1.29185799.47348643-1.89979119.80083507l-1.60751566-1.15741128c-.29227557-.21043841-.64300626-.32150313-1.00542797-.32150313-.46179541 0-.90020877.18121086-1.2217119.5085595l-1.74780793 1.74196242c-.59624217.59624218-.67807934 1.53736952-.18705637 2.22713988l1.1691023 1.64258873c-.32150314.6137787-.57870564 1.25093941-.77745303 1.91148221l-1.94070981.3273487c-.83590815.1402923-1.44384134.8592902-1.44384134 1.7068893v2.4609604c0 .8475991.60793319 1.566597 1.44384134 1.7068893l1.9874739.3390397c.2045929.6546973.47348643 1.291858.80083507 1.8997912l-1.15156576 1.6016702c-.49102296.6897703-.41503131 1.6308977.18705637 2.2271398l1.74196242 1.7419625c.32734864.3273486.75991649.5085595 1.2217119.5085595.36242171 0 .70730689-.1110648.99958246-.3215032l1.64258873-1.1691023c.59039666.3098121 1.21002087.5611691 1.84718167.7599165l.3273486 1.9640919c.1402923.8359081.8592902 1.4438413 1.7068894 1.4438413h2.4668058c.8475992 0 1.5665971-.6079332 1.7068894-1.4438413l.3331941-1.9640919c.6605428-.2045929 1.2977036-.4676409 1.9056368-.789144l1.6192066 1.1574112c.2922756.2104385.6430063.3215032 1.005428.3215032.4617954 0 .8943633-.1812109 1.2217119-.5085595l1.7419624-1.7419624c.5962422-.5962422.6780794-1.5373696.1870564-2.2271399l-1.1574113-1.6250522c.3215032-.6137787.5903967-1.2509395.7891441-1.9056367l1.9640918-.3273487c.8359082-.1402923 1.4438414-.8592902 1.4438414-1.7068893v-2.4609604c.011691-.8475991-.5962422-1.5665971-1.4321503-1.7068893zm-.1344468 4.1678497c0 .0759916-.0526096.1402922-.1286013.1519833l-2.4551148.4091858c-.3098121.0526096-.5553236.2805845-.6313152.5787056-.2221295.8592902-.5611691 1.6835073-1.017119 2.4492693-.1578288.2688935-.1461378.6020877.035073.8592902l1.4438414 2.034238c.0409186.0584551.035073.1461378-.0175366.1987474l-1.7419624 1.7419624c-.0409186.0409186-.0818371.0467641-.1110647.0467641-.0350731 0-.0643006-.011691-.0876827-.0292276l-2.0283925-1.4438413c-.2513569-.1812109-.5903966-.1929019-.8592901-.0350731-.765762.4559499-1.5899792.7949896-2.4492693 1.017119-.3039666.0759917-.5319416.3273487-.5787057.6313153l-.4150313 2.4551148c-.011691.0759916-.0759917.1286012-.1519833.1286012h-2.4609603c-.0759917 0-.1402923-.0526096-.1519833-.1286012l-.4091858-2.4551148c-.0526096-.3098121-.2805846-.5553236-.5787057-.6313153-.8359081-.2162839-1.6425887-.5494781-2.39665968-.9820459-.12275574-.0701461-.26304802-.1052192-.39749478-.1052192-.15782881 0-.32150313.0467641-.4559499.1461378l-2.04592902 1.4555323c-.02922755.0175366-.05845511.0292276-.08768267.0292276-.02338204 0-.07014614-.0058455-.11106472-.0467641l-1.74196242-1.7419624c-.0526096-.0526096-.05845511-.1344468-.01753653-.1987474l1.43799582-2.0167015c.18121086-.2572025.19290188-.5962421.03507307-.8651357-.45594989-.7599165-.80668058-1.5841336-1.02881002-2.4434238-.08183716-.2981211-.32734864-.526096-.63131524-.5787056l-2.47265136-.4208768c-.07599165-.0116911-.12860125-.0759917-.12860125-.1519833v-2.4609604c0-.0759916.0526096-.1402922.12860125-.1519833l2.43757829-.4091858c.30981211-.0526096.5611691-.2805845.63716075-.5845511.21628393-.8592902.54947808-1.68935283.99958247-2.45511484.15782881-.26889353.14029227-.60208768-.04091858-.85344467l-1.45553236-2.04592902c-.04091858-.05845512-.03507307-.14613779.01753653-.19874739l1.74196242-1.74196242c.04091858-.04091859.08183716-.0467641.11106472-.0467641.03507307 0 .06430063.01169103.08768267.02922756l2.01670146 1.43799583c.25720251.18121085.59624218.19290187.8651357.03507306.7599165-.45594989 1.58413358-.80668058 2.44342378-1.02881002.2981211-.08183716.5260961-.32734864.5787057-.63131524l.4208768-2.47265135c.011691-.07599165.0759916-.12860126.1519833-.12860126h2.4609603c.0759917 0 .1402923.05260961.1519833.12860126l.4091858 2.43757828c.0526096.30981211.2805846.56116911.5845512.63716076.8826722.22212943 1.7244259.56701461 2.5077244 1.02881002.2688935.15782881.6020877.14613778.8592902-.03507307l2.0167014-1.44968685c.0292276-.01753653.0584552-.02922756.0876827-.02922756.0233821 0 .0701462.00584551.1110647.04676409l1.7419625 1.74196243c.0526096.0526096.0584551.13444676.0175365.19874739l-1.4438413 2.02839248c-.1812109.251357-.1929019.59039666-.0350731.85929019.4559499.765762.7949895 1.58997914 1.017119 2.44926934.0759916.3039666.3273486.5319415.6313152.5787056l2.4551148.4150313c.0759917.011691.1286013.0759917.1286013.1519833v2.4609604z"/><path d="m13.9941545 7.94995407c-3.3319416 0-6.03841337 2.70647183-6.03841337 6.03841333 0 3.3319416 2.70647177 6.0384134 6.03841337 6.0384134 3.3319415 0 6.0384133-2.7064718 6.0384133-6.0384134 0-3.3319415-2.7064718-6.03841333-6.0384133-6.03841333zm0 10.49853863c-2.4609603 0-4.46012527-1.9991649-4.46012527-4.4601253 0-2.4609603 1.99916497-4.46012523 4.46012527-4.46012523s4.4601252 1.99916493 4.4601252 4.46012523c0 2.4609604-1.9991649 4.4601253-4.4601252 4.4601253z"/></g><g transform="translate(41 34)"><path d="m17.0786538 7.11050762-1.2634143-.21433047c-.1316057-.42490078-.3008129-.83476081-.5076218-1.22581993l.744512-1.04157092c.3158536-.4437017.2669715-1.04909129-.1203252-1.43263004l-1.1205281-1.12053479c-.2105691-.21057029-.488821-.32713599-.7858738-.32713599-.23313 0-.4549795.07144349-.6429876.20681011l-1.0453249.7445164c-.4060975-.21433048-.8309957-.39105912-1.2709346-.52266555l-.2105691-1.24838103c-.0902439-.53770629-.5527437-.92876541-1.09796716-.92876541h-1.58302802c-.54522342 0-1.00772329.39105912-1.09796717.92876541l-.21808937 1.2784625c-.4211381.13160643-.83099571.30457489-1.22205251.51514518l-1.03404443-.74451639c-.18800807-.13536662-.41361777-.20681012-.64674778-.20681012-.29705277 0-.57906488.1165657-.78587377.327136l-1.1242883 1.12053478c-.38353648.38353875-.43617874.98892835-.12032517 1.43263004l.75203231 1.05661166c-.20680889.3948193-.372256.80467934-.50010149 1.22958011l-1.24837364.21057029c-.5377031.09024442-.9287599.55274703-.9287599 1.09797368v1.58303739c0 .54522667.3910568 1.00772927.9287599 1.09797367l1.27845493.2180907c.13160566.4211406.30457309.8310006.51514214 1.2220597l-.74075183 1.0302904c-.31585357.4437017-.26697147 1.0490913.12032517 1.43263l1.12052814 1.1205348c.21056905.2105703.48882101.327136.78587377.327136.23313001 0 .45497955-.0714435.64298762-.2068101l1.0566054-.7520368c.37977632.1992898.77835344.3609777 1.18821105.4888239l.21056905 1.2634218c.09024388.5377063.55274375.9287654 1.09796717.9287654h1.58678818c.54522341 0 1.00772331-.3910591 1.09796721-.9287654l.2143292-1.2634218c.4248982-.1316064.8347558-.3008147 1.2258126-.5076248l1.0415648.7445164c.1880081.1353666.4136178.2068101.6467478.2068101.2970527 0 .5753047-.1165657.7858737-.327136l1.1205282-1.1205348c.3835365-.3835387.4361787-.9889283.1203252-1.43263l-.744512-1.0453311c.2068089-.3948193.3797763-.8046793.5076218-1.2258199l1.2634143-.2105703c.5377031-.0902444.9287599-.552747.9287599-1.0979737v-1.5830374c.0075203-.54522665-.3835365-1.00772926-.9212396-1.09797368zm-.0864837 2.68101108c0 .04888239-.0338415.09024441-.0827236.09776478l-1.5792678.26321282c-.1992886.0338417-.3572154.1804889-.4060975.3722582-.1428861.5527471-.3609755 1.082933-.6542681 1.5755171-.1015244.1729684-.094004.3872989.022561.552747l.9287599 1.308544c.0263211.0376018.0225609.0940046-.0112805.1278462l-1.1205282 1.1205348c-.0263211.0263213-.0526422.0300815-.071443.0300815-.022561 0-.0413618-.0075204-.0564024-.018801l-1.3047761-.9287654c-.1616869-.1165657-.3797763-.124086-.5527438-.0225611-.4925811.2932944-1.0227639.511385-1.5755076.654272-.1955284.0488824-.3421747.2105703-.372256.4060999l-.26697151 1.5792772c-.00752032.0488824-.0488821.082724-.0977642.082724h-1.58302801c-.0488821 0-.09024388-.0338416-.0977642-.082724l-.26321131-1.5792772c-.03384146-.1992898-.18048776-.3572175-.372256-.4060999-.5377031-.1391268-1.05660539-.3534573-1.54166623-.6317109-.0789634-.0451222-.16920727-.0676833-.25569099-.0676833-.10152436 0-.20680889.0300815-.2932926.0940046l-1.31605655.9362858c-.0188008.0112806-.03760161.0188009-.05640242.0188009-.01504065 0-.04512194-.0037602-.07144307-.0300814l-1.12052814-1.1205348c-.03384146-.0338417-.03760162-.0864843-.01128049-.1278463l.92499974-1.2972634c.11656501-.1654481.12408534-.3835388.02256097-.5565072-.2932926-.4888239-.51890229-1.0190098-.66178843-1.5717569-.05264226-.1917693-.21056905-.3384165-.40609745-.3722581l-1.59054834-.27073329c-.0488821-.00752036-.08272355-.04888239-.08272355-.09776478v-1.58303739c0-.04888239.03384145-.09024441.08272355-.09776478l1.56798737-.26321287c.19928857-.03384165.36097551-.18048882.40985761-.37601838.13912598-.55274702.35345519-1.08669313.64298763-1.57927721.10152436-.17296845.09024388-.38729893-.02632113-.54898684l-.93628023-1.31606434c-.02632113-.03760184-.02256097-.09400459.01128049-.12784625l1.12052814-1.12053478c.02632113-.02632129.05264226-.03008147.07144307-.03008147.02256097 0 .04136178.00752037.05640242.01880092l1.29725574.92500522c.16544711.1165657.38353648.12408607.55650391.0225611.488821-.29329434 1.01900378-.51890537 1.57174753-.66179235.19176824-.05264257.33841454-.2105703.37225599-.40609985l.27073164-1.59055777c.00752032-.04888238.0488821-.08272404.0977642-.08272404h1.58302801c.0488821 0 .09024388.03384166.0977642.08272404l.26321134 1.56799666c.0338414.19928975.1804877.36097765.3760161.40986004.5677844.14288699 1.1092477.36473783 1.6131093.66179235.1729675.10152497.3872967.0940046.5527438-.0225611l1.2972557-.93252559c.0188008-.01128055.0376016-.01880092.0564024-.01880092.0150407 0 .045122.00376019.0714431.03008147l1.1205282 1.12053478c.0338414.03384166.0376016.08648423.0112804.12784625l-.9287599 1.30478379c-.116565.16168791-.1240853.37977857-.0225609.55274703.2932926.49258408.5113819 1.02277.6542681 1.57551702.0488821.19552956.210569.34217673.4060974.3722582l1.5792679.26697305c.0488821.00752037.0827235.04888239.0827235.09776478v1.5830374z"/><path d="m9 5.29411765c-2.04487216 0-3.70588235 1.66101019-3.70588235 3.70588235 0 2.0448722 1.66101019 3.7058824 3.70588235 3.7058824 2.0448722 0 3.7058824-1.6610102 3.7058824-3.7058824 0-2.04487216-1.6610102-3.70588235-3.7058824-3.70588235zm0 6.44314105c-1.5103354 0-2.7372587-1.2269233-2.7372587-2.7372587s1.2269233-2.7372587 2.7372587-2.7372587 2.7372587 1.2269233 2.7372587 2.7372587-1.2269233 2.7372587-2.7372587 2.7372587z"/></g><g transform="translate(29 45)"><path d="m13.2833974 5.53039482-.9826556-.16670148c-.1023599-.33047838-.2339656-.64925841-.3948169-.9534155l.5790649-.81011072c.2456638-.34510132.2076444-.81595989-.0935863-1.11426781l-.8715219-.87152705c-.1637759-.1637769-.3801941-.25443911-.6112351-.25443911-.1813234 0-.353873.05556716-.5001015.16085231l-.81303051.57906831c-.31585357-.16670148-.64632999-.30415709-.98850469-.40651765l-.16377592-.97096303c-.07018969-.418216-.42991181-.72237309-.85397447-.72237309h-1.23124401c-.42406267 0-.78378479.30415709-.85397447.72237309l-.16962507.99435973c-.32755185.10236056-.64632999.23689158-.95048528.40066848l-.80425678-.57906831c-.1462285-.10528515-.32170271-.16085231-.50302606-.16085231-.23104103 0-.45038379.09066221-.61123515.2544391l-.87444646.87152706c-.29830615.29830791-.33925013.76916649-.09358624 1.1142678l.58491402.82180907c-.16085135.30708168-.28953244.62586171-.38896782.95634009l-.97095728.16377689c-.41821352.0701901-.72236881.42991435-.72236881.85397953v1.23125131c0 .42406517.30415529.78378943.72236881.85397952l.99435384.16962608c.10235995.32755379.23689018.64633382.4006661.95049091l-.57614031.80133696c-.24566389.3451013-.20764447.8159599.09358625 1.1142678l.87152188.8715271c.16377593.1637768.38019412.2544391.61123516.2544391.18132334 0 .35387298-.0555672.50010148-.1608523l.8218042-.5849175c.29538158.1550031.60538601.2807604.92416415.3801963l.16377593.9826614c.07018968.418216.4299118.7223731.85397447.7223731h1.23416858c.42406266 0 .78378478-.3041571.85397447-.7223731l.16670049-.9826614c.33047642-.1023605.64925456-.233967.95340985-.3948193l.81010595.5790683c.1462285.1052852.3217027.1608523.503026.1608523.2310411 0 .4474593-.0906622.6112352-.2544391l.8715219-.871527c.2983061-.2983079.3392501-.7691665.0935862-1.1142678l-.5790649-.81303532c.1608514-.30708168.2953816-.62586171.394817-.9534155l.9826555-.1637769c.4182136-.0701901.7223689-.42991435.7223689-.85397953v-1.2312513c.0058491-.42406518-.2983062-.78378943-.7165197-.85397953zm-.0672651 2.08523083c0 .03801964-.0263212.0701901-.0643406.07603928l-1.2283194.20472112c-.1550022.02632128-.2778342.14038019-.3158536.28953415-.1111336.42991435-.2807587.84228118-.5088752 1.22540213-.0789634.13453102-.0731142.30123251.0175474.42991435l.7223689 1.01775642c.020472.0292459.0175474.0731147-.0087737.099436l-.8715219.871527c-.020472.0204721-.040944.0233967-.0555669.0233967-.0175474 0-.0321702-.0058491-.0438685-.0146229l-1.01482585-.7223731c-.12575651-.0906622-.29538158-.0965114-.4299118-.0175475-.38311868.2281178-.79548307.3977439-1.22539487.5088782-.15207765.0380196-.26613588.1637769-.28953244.3158554l-.20764448 1.2283267c-.00584914.0380197-.03801941.064341-.07603882.064341h-1.23124401c-.03801942 0-.07018969-.0263213-.07603883-.064341l-.2047199-1.2283267c-.02632113-.1550031-.14037937-.2778358-.28953244-.3158554-.41821353-.1082097-.8218042-.2749112-1.19907374-.4913307-.06141598-.035095-.13160566-.0526426-.19887077-.0526426-.07896339 0-.16085136.0233967-.22811647.0731147l-1.02359953.7282223c-.01462285.0087737-.0292457.0146229-.04386855.0146229-.01169828 0-.03509485-.0029246-.05556684-.0233967l-.87152189-.871527c-.02632113-.0263213-.0292457-.0672655-.00877371-.099436l.71944425-1.00898267c.09066167-.12868184.09651081-.29830792.01754742-.43283894-.22811647-.38019636-.40359067-.79256319-.51472434-1.22247754-.04094398-.14915396-.16377592-.26321287-.31585357-.28953416l-1.23709315-.21057029c-.03801941-.00584917-.06434054-.03801964-.06434054-.07603927v-1.23125131c0-.03801964.02632113-.0701901.06434054-.07603927l1.21954573-.20472112c.15500222-.02632129.28075873-.1403802.31877814-.29245874.10820909-.42991436.27490959-.84520577.50010149-1.22832672.07896339-.13453102.07018968-.30123251-.02047199-.42698977l-.72821796-1.02360559c-.02047199-.02924588-.01754742-.07311469.00877371-.09943598l.87152189-.87152705c.02047199-.02047211.04094398-.0233967.05556683-.0233967.01754742 0 .03217028.00584918.04386856.01462294l1.00897668.7194485c.12868108.09066222.29830615.09651139.43283637.01754753.38019412-.22811782.7925585-.40359307 1.22247031-.51472739.14915307-.04094422.2632113-.16377689.28953244-.31585544l.21056904-1.23710048c.00584914-.03801964.03801941-.06434092.07603883-.06434092h1.23124401c.03801941 0 .07018968.02632128.07603882.06434092l.20471991 1.21955296c.02632113.15500313.14037936.28076039.29245701.31878003.44161008.11113432.86274818.28368498 1.25464057.51472738.13453022.07896386.30123072.07311469.4299118-.01754752l1.00897664-.72529768c.0146229-.00877377.0292457-.01462294.0438686-.01462294.0116983 0 .0350948.00292459.0555668.0233967l.8715219.87152705c.0263212.02632129.0292457.06726551.0087737.09943597l-.7223688 1.01483184c-.0906617.12575726-.0965108.29538333-.0175474.42991435.2281165.38312095.3977415.79548778.5088752 1.22540213.0380194.15207855.1637759.26613746.3158536.28953416l1.2283194.2076457c.0380194.00584918.0643405.03801964.0643405.07603928v1.2312513z"/><path d="m7 4.66666667c-1.2875121 0-2.33333333 1.04582123-2.33333333 2.33333333s1.04582123 2.33333333 2.33333333 2.33333333 2.33333333-1.04582123 2.33333333-2.33333333-1.04582123-2.33333333-2.33333333-2.33333333zm0 4.05679251c-.95095192 0-1.72345918-.77250726-1.72345918-1.72345918s.77250726-1.72345918 1.72345918-1.72345918 1.72345918.77250726 1.72345918 1.72345918-.77250726 1.72345918-1.72345918 1.72345918z"/></g></g></g></svg>