<svg height="134" viewBox="0 0 134 134" width="134" xmlns="http://www.w3.org/2000/svg"><g fill="none" fill-rule="evenodd" transform="translate(3 3)"><path d="m64 0c-35.2896 0-64 28.7104-64 64s28.7104 64 64 64 64-28.7104 64-64-28.7104-64-64-64z" fill="#8dc1ff" stroke="#fff" stroke-width="6"/><path d="m86.675274 65.314014-34.751773 23.8637124c-.2669568.1829551-.5781432.2768191-.8893295.2768191-.2527402 0-.50706-.0604548-.7376854-.1845461-.5181173-.2752281-.8419406-.816139-.8419406-1.4063681v-47.7274248c0-.5902292.3238233-1.13114.8419406-1.4063681.5181174-.2768191 1.1436493-.2386371 1.6285945.092273l34.751773 23.8637124c.4296583.29591.688717.7875025.688717 1.3140951s-.2590587 1.0181851-.6902966 1.3140951z" fill="#fff"/></g></svg>