<svg height="75" viewBox="0 0 75 75" width="75" xmlns="http://www.w3.org/2000/svg"><g fill="none" fill-rule="evenodd"><rect fill="#fff" fill-rule="evenodd" height="75" rx="37.5" width="75"/><rect height="74" rx="37" stroke="#9b9b9b" width="74" x=".5" y=".5"/><g fill="#000"><path d="m25.5 54.692c-.276 0-.5-.224-.5-.5v-7.692c0-.276.224-.5.5-.5s.5.224.5.5v7.692c0 .276-.224.5-.5.5z" fill-rule="nonzero"/><path d="m33.5 54.545c-.276 0-.5-.224-.5-.5v-12.545c0-.276.224-.5.5-.5s.5.224.5.5v12.545c0 .276-.224.5-.5.5z" fill-rule="nonzero"/><path d="m41.5 54.032c-.276 0-.5-.224-.5-.5v-16.032c0-.276.224-.5.5-.5s.5.224.5.5v16.032c0 .276-.224.5-.5.5z" fill-rule="nonzero"/><path d="m49.5 54.163c-.276 0-.5-.224-.5-.5v-21.163c0-.276.224-.5.5-.5s.5.224.5.5v21.163c0 .276-.224.5-.5.5z" fill-rule="nonzero"/><path d="m45.1207397 25.2445249c-.146 0-.293-.064-.392-.189l-3.064-3.853-3.853 3.064c-.214.171-.53.138-.703-.08-.172-.216-.136-.53.08-.702l4.244-3.376c.216-.17.531-.138.703.08l3.376 4.244c.172.216.136.53-.08.702-.091.074-.201.11-.311.11z"/><path d="m25.5 38.159c-.276 0-.5-.224-.5-.5s.224-.5.5-.5c8.635 0 15.659-7.024 15.659-15.659 0-.276.224-.5.5-.5s.5.224.5.5c0 9.186-7.473 16.659-16.659 16.659z"/></g></g></svg>