<svg height="70" viewBox="0 0 70 70" width="70" xmlns="http://www.w3.org/2000/svg"><g fill="none"><path d="m27.9919179 8.99526977c.0519902-1.36930921-.1026474-3.93749356-1.7956632-5.41886899-1.6903496-1.48020807-4.6111351-1.60394786-6.1881726-1.57242923-.0519902 1.3693092.1026474 3.93749355 1.7956632 5.41886898 1.6916827 1.48254278 4.6178005 1.60744993 6.1881726 1.57242924z" fill="#ee5061"/><path d="m44.9973957 7.00150479c-1.2466731-.01920722-3.3764562.12964871-4.6219294 1.37331595-1.2442732 1.24486769-1.4002574 3.38767276-1.3726602 4.62293676 1.2382739.0240091 3.3740564-.1260473 4.6207295-1.3733159 1.2454731-1.2448677 1.4002574-3.38767273 1.3738601-4.62293681z" fill="#ee5061"/><g fill="#000"><path d="m10 32.44375c-5.6075 0-10 2.745-10 6.25v25c0 3.505 4.3925 6.25 10 6.25s10-2.745 10-6.25v-25c0-3.505-4.3925-6.25-10-6.25zm0 35c-4.42 0-7.5-1.97625-7.5-3.75v-2.085c1.81875 1.2825 4.47875 2.08375 7.5 2.08375s5.68125-.80125 7.5-2.08375v2.08375c0 1.77375-3.08 3.75125-7.5 3.75125zm0-6.25c-4.42 0-7.5-1.97625-7.5-3.75v-2.085c1.81875 1.2825 4.47875 2.08375 7.5 2.08375s5.68125-.80125 7.5-2.08375v2.08375c0 1.77375-3.08 3.75125-7.5 3.75125zm0-6.25c-4.42 0-7.5-1.97625-7.5-3.75v-2.085c1.81875 1.2825 4.47875 2.08375 7.5 2.08375s5.68125-.80125 7.5-2.08375v2.08375c0 1.77375-3.08 3.75125-7.5 3.75125zm0-6.25c-4.42 0-7.5-1.97625-7.5-3.75v-2.085c1.81875 1.2825 4.47875 2.08375 7.5 2.08375s5.68125-.80125 7.5-2.08375v2.08375c0 1.77375-3.08 3.75125-7.5 3.75125zm0-6.25c-4.42 0-7.5-1.97625-7.5-3.75s3.08-3.75 7.5-3.75 7.5 1.97625 7.5 3.75-3.08 3.75-7.5 3.75z"/><path d="m60 1.1925c-5.6075 0-10 2.745-10 6.25v56.25c0 3.505 4.3925 6.25 10 6.25s10-2.745 10-6.25v-56.25c0-3.50375-4.3925-6.25-10-6.25zm0 2.5c4.42 0 7.5 1.97625 7.5 3.75s-3.08 3.75-7.5 3.75-7.5-1.97625-7.5-3.75 3.08-3.75 7.5-3.75zm0 63.75125c-4.42 0-7.5-1.97625-7.5-3.75v-2.085c1.81875 1.2825 4.47875 2.08375 7.5 2.08375s5.68125-.80125 7.5-2.08375v2.08375c0 1.77375-3.08 3.75125-7.5 3.75125zm0-6.25c-4.42 0-7.5-1.97625-7.5-3.75v-2.085c1.81875 1.2825 4.47875 2.08375 7.5 2.08375s5.68125-.80125 7.5-2.08375v2.08375c0 1.77375-3.08 3.75125-7.5 3.75125zm0-6.25c-4.42 0-7.5-1.97625-7.5-3.75v-2.085c1.81875 1.2825 4.47875 2.08375 7.5 2.08375s5.68125-.80125 7.5-2.08375v2.08375c0 1.77375-3.08 3.75125-7.5 3.75125zm0-6.25c-4.42 0-7.5-1.97625-7.5-3.75v-2.085c1.81875 1.2825 4.47875 2.08375 7.5 2.08375s5.68125-.80125 7.5-2.08375v2.08375c0 1.77375-3.08 3.75125-7.5 3.75125zm0-6.25c-4.42 0-7.5-1.97625-7.5-3.75v-2.085c1.81875 1.2825 4.47875 2.08375 7.5 2.08375s5.68125-.80125 7.5-2.08375v2.08375c0 1.77375-3.08 3.75125-7.5 3.75125zm0-6.25c-4.42 0-7.5-1.97625-7.5-3.75v-2.085c1.81875 1.2825 4.47875 2.08375 7.5 2.08375s5.68125-.80125 7.5-2.08375v2.08375c0 1.77375-3.08 3.75125-7.5 3.75125zm0-6.25c-4.42 0-7.5-1.97625-7.5-3.75v-2.085c1.81875 1.2825 4.47875 2.08375 7.5 2.08375s5.68125-.80125 7.5-2.08375v2.08375c0 1.77375-3.08 3.75125-7.5 3.75125zm0-6.25c-4.42 0-7.5-1.97625-7.5-3.75v-2.085c1.81875 1.2825 4.47875 2.08375 7.5 2.08375s5.68125-.80125 7.5-2.08375v2.08375c0 1.77375-3.08 3.75125-7.5 3.75125zm0-6.25c-4.42 0-7.5-1.97625-7.5-3.75v-2.085c1.81875 1.2825 4.47875 2.085 7.5 2.085s5.68125-.80125 7.5-2.085v2.085c0 1.7725-3.08 3.75-7.5 3.75z"/><path d="m46.34625 5.04c-.21-.0325-5.15125-.7125-7.93125 2.06875-2.22375 2.22375-2.23375 5.82125-2.1325 7.28375l-2.16625 2.16625c-.235.235-.36625.5525-.36625.885v.7325l-3.75-3.75v-4.1175h-.0075c.05375-2.5-.19-5.535-2.415-7.76-3.115-3.1175-8.67875-2.445-8.9125-2.4075-.5475.08-.9775.46375-1.0575 1.01125-.03375.235-.8025 5.77375 2.31625 8.89 2.05875 2.06 5.185 2.41125 7.1375 2.41125.16 0 .29625-.0175.44-.02125v2.51c0 .3325.13125.64875.36625.88375l4.35625 4.3575c-4.21375.735-7.22375 3.11-7.22375 6.01v37.5c0 3.505 4.3925 6.25 10 6.25s10-2.745 10-6.25v-37.5c0-3.23875-3.755-5.825-8.75-6.19875v-2.03375l1.80125-1.80125c.25375.0175.5575.0325.9225.0325 1.735 0 4.52-.325 6.36-2.16375 2.7825-2.7825 2.1-7.7225 2.06875-7.93125-.07875-.54875-.5075-.97875-1.05625-1.0575zm-18.85375 4.89625c-1.4725.0375-4.21625-.09625-5.8025-1.68375-1.58625-1.58625-1.7325-4.33625-1.68375-5.8025 1.47875-.03375 4.2175.0975 5.8025 1.68375 1.5875 1.58625 1.7325 4.33625 1.68375 5.8025zm7.5075 57.5075c-4.42 0-7.5-1.97625-7.5-3.75v-2.085c1.81875 1.2825 4.47875 2.08375 7.5 2.08375s5.68125-.80125 7.5-2.08375v2.08375c0 1.77375-3.08 3.75125-7.5 3.75125zm0-6.25c-4.42 0-7.5-1.97625-7.5-3.75v-2.085c1.81875 1.2825 4.47875 2.08375 7.5 2.08375s5.68125-.80125 7.5-2.08375v2.08375c0 1.77375-3.08 3.75125-7.5 3.75125zm0-6.25c-4.42 0-7.5-1.97625-7.5-3.75v-2.085c1.81875 1.2825 4.47875 2.08375 7.5 2.08375s5.68125-.80125 7.5-2.08375v2.08375c0 1.77375-3.08 3.75125-7.5 3.75125zm0-6.25c-4.42 0-7.5-1.97625-7.5-3.75v-2.085c1.81875 1.2825 4.47875 2.08375 7.5 2.08375s5.68125-.80125 7.5-2.08375v2.08375c0 1.77375-3.08 3.75125-7.5 3.75125zm0-6.25c-4.42 0-7.5-1.97625-7.5-3.75v-2.085c1.81875 1.2825 4.47875 2.08375 7.5 2.08375s5.68125-.80125 7.5-2.08375v2.08375c0 1.77375-3.08 3.75125-7.5 3.75125zm0-6.25c-4.42 0-7.5-1.97625-7.5-3.75v-2.085c1.81875 1.2825 4.47875 2.08375 7.5 2.08375s5.68125-.80125 7.5-2.08375v2.08375c0 1.77375-3.08 3.75125-7.5 3.75125zm7.5-10c0 1.77375-3.08 3.75-7.5 3.75s-7.5-1.97625-7.5-3.75c0-1.60125 2.5125-3.36125 6.25-3.69v4.055h2.5v-4.05625c3.7375.33 6.25 2.09 6.25 3.69125zm1.06625-13.93375c-1.29875 1.29875-3.52375 1.455-4.81375 1.43-.02875-1.28625.13375-3.5175 1.43-4.81375 1.29625-1.295 3.51625-1.45 4.815-1.43.0275 1.28625-.13375 3.5175-1.43125 4.81375z"/></g></g></svg>