<svg height="76" viewBox="0 0 70 76" width="70" xmlns="http://www.w3.org/2000/svg"><g fill="none"><g fill="#ee5061"><circle cx="13.0237" cy="18.942918" r="5.919662"/><circle cx="65.116131" cy="10.655539" r="3.552389"/><circle cx="35.517526" cy="37.885983" r="10.655539"/></g><path d="m43.8056448 14.2071882c3.0243552 0 5.6116914-1.9005074 6.6346089-4.56923894l10.045666 2.00913324c.4572938 2.1367019 2.3594291 3.744038 4.6305074 3.744038 2.6113107 0 4.7357293-2.1245666 4.7357293-4.7357294 0-2.61116277-2.1245665-4.73572937-4.7357293-4.73572937-2.1233827 0-3.9248838 1.40488372-4.5238055 3.33395349l-9.6887104-1.93765327c.0020719-.07073996.0053277-.14103595.0053277-.21221988.000148-3.91704017-3.1867019-7.10374207-7.1035941-7.10374207-3.9170401 0-7.1035941 3.1867019-7.1035941 7.10374207 0 3.01384783 1.8876322 5.59378433 4.5420085 6.62380553l-2.9210571 12.6575687c-.8997886-.2194715-1.8384989-.3386047-2.8048837-.3386047-3.1612474 0-6.0347992 1.2478647-8.1602537 3.2738689l-8.0596195-7.052093c.5283299-.9927272.8289007-2.1244186.8289007-3.325222 0-3.9170401-3.1867019-7.103742-7.1037421-7.103742-3.91704016 0-7.10359407 3.1868499-7.10359407 7.103742 0 3.9168922 3.1867019 7.1035941 7.10359407 7.1035941 1.8626216 0 3.5590486-.7216067 4.8271882-1.8984355l7.9632769 6.9678858c-1.3436152 1.9201903-2.135074 4.253721-2.135074 6.7700212 0 2.5111205.788203 4.8405074 2.1267865 6.7584778l-13.86074 11.7283298c-1.2697674-1.1846723-2.97167015-1.9117548-4.84109933-1.9117548-3.91704017 0-7.10374207 3.1867019-7.10374207 7.1035941s3.1867019 7.1037421 7.10374207 7.1037421c3.91704013 0 7.10359413-3.1867019 7.10359413-7.1037421 0-1.1947357-.297759-2.3206554-.8209091-3.3096829l13.9609302-11.8132769c2.1266385 2.0317759 5.004334 3.2836363 8.1707611 3.2836363.8938689 0 1.7636152-.1028541 2.6012474-.2915433l4.2156871 12.6472093c-2.2423679.9067442-3.9185201 2.9254968-4.3426639 5.3695772h-7.3695349c-.5385412-2.0231924-2.3857716-3.518351-4.5761945-3.518351-2.6113108 0-4.7357294 2.1245666-4.7357294 4.7357294s2.1245666 4.7357294 4.7357294 4.7357294c2.2354123 0 4.112537-1.557167 4.6072727-3.6435518h7.31611c.5269979 3.4002537 3.4739535 6.0114165 7.0193869 6.0114165 3.9170401 0 7.1035941-3.1867019 7.1035941-7.1037421s-3.186554-7.1035941-7.1035941-7.1035941c-.1099577 0-.2193235.0034038-.3279493.0082876l-4.2964905-12.8894715c4.1172728-1.855666 6.9921565-5.9957294 6.9921565-10.797463 0-.0711839-.0041438-.1413319-.0053277-.2122199l9.6888583-1.9378012c.5989218 1.9290697 2.4002749 3.3341014 4.5236575 3.3341014 2.6113108 0 4.7357294-2.1245666 4.7357294-4.7357293 0-2.6111628-2.1245666-4.7357294-4.7357294-4.7357294-2.2710782 0-4.1730655 1.6074841-4.6302114 3.744038l-9.8614165 1.9724313c-.8009302-3.6013742-3.2447146-6.5899154-6.5033403-8.1336152l2.9954968-12.9798943c.0802114.0025159.1601268.0059197.2407822.0059197zm21.3107823-5.91951378c1.3055814 0 2.3680126 1.06213531 2.3680126 2.36786468 0 1.3057294-1.0621353 2.3678647-2.3680126 2.3678647-1.3057294-.000148-2.3680127-1.0622833-2.3680127-2.3680127 0-1.30572937 1.0624313-2.36771668 2.3680127-2.36771668zm-39.0697675 62.74826638c-1.3055814 0-2.3678647-1.0621353-2.3678647-2.3680127 0-1.3055814 1.0621353-2.3678647 2.3678647-2.3678647s2.3678647 1.0621353 2.3678647 2.3678647c.000148 1.3058774-1.0621353 2.3680127-2.3678647 2.3680127zm23.678647-2.3680127c0 2.6113108-2.1245666 4.7357294-4.7357294 4.7357294-2.6114588 0-4.7358774-2.1242706-4.7358774-4.7357294 0-2.6111628 2.1245666-4.7355814 4.7358774-4.7355814 2.6113107 0 4.7357294 2.1244186 4.7357294 4.7355814zm11.8393234-36.7017547c1.3055814 0 2.3680127 1.0621353 2.3680127 2.3678647 0 1.3057293-1.0621353 2.3678646-2.3680127 2.3678646-1.3054334 0-2.3678647-1.0621353-2.3678647-2.3678646.000148-1.3057294 1.0622833-2.3678647 2.3678647-2.3678647zm-48.5412262-8.2876745c-2.6113108 0-4.73558139-2.1244186-4.73558139-4.7355814 0-2.6114587 2.12441859-4.7357293 4.73558139-4.7357293s4.7357294 2.1244186 4.7357294 4.7357293c0 2.6113108-2.1242706 4.7355814-4.7357294 4.7355814zm-5.91951374 42.6217125c-2.61145877 0-4.73572938-2.1242706-4.73572938-4.7357294 0-2.6113108 2.1244186-4.7355814 4.73572938-4.7355814 2.61131079 0 4.73558144 2.1242706 4.73558144 4.7355814 0 2.6111628-2.12441865 4.7357294-4.73558144 4.7357294zm37.88568714-28.4142283c0 5.2226216-4.2489852 9.4714588-9.4714588 9.4714588s-9.4714588-4.2488372-9.4714588-9.4714588 4.2488372-9.4714588 9.4714588-9.4714588 9.4714588 4.2486892 9.4714588 9.4714588zm-5.9196618-30.78224103c0-2.61145877 2.1245666-4.73572939 4.7357294-4.73572939 2.6114588 0 4.7358774 2.12441861 4.7358774 4.73572939s-2.1245666 4.73558143-4.7358774 4.73558143c-2.6111628 0-4.7357294-2.12441864-4.7357294-4.73558143z" fill="#000"/></g></svg>