<?xml version="1.0" encoding="UTF-8"?>
<svg width="35px" height="35px" viewBox="0 0 35 35" version="1.1" xmlns="http://www.w3.org/2000/svg" xmlns:xlink="http://www.w3.org/1999/xlink">
    <!-- Generator: sketchtool 46.2 (44496) - http://www.bohemiancoding.com/sketch -->
    <title>D1955ABE-8B52-483E-96BF-B045DBC93B70</title>
    <desc>Created with sketchtool.</desc>
    <defs></defs>
    <g id="Symbols" stroke="none" stroke-width="1" fill="none" fill-rule="evenodd">
        <g id="icon_polyglot" fill-rule="nonzero" fill="#010002">
            <g id="Shape">
                <polygon points="16.9366751 4.10273087 16.9366751 15 19.0633249 15 19.0633249 4.10273087 23.4962989 8.57010998 25 7.05450056 17.9996522 0 11 7.05391638 12.5017305 8.570811"></polygon>
                <polygon points="15 19.063286 15 16.9361345 4.10785567 16.9361345 8.58011601 12.5042596 7.06238695 11 0 17.9997102 7.06238695 25 8.58011601 23.4958563 4.10715399 19.063286"></polygon>
                <polygon points="19.0636198 30.8972691 19.0636198 20 16.9370757 20 16.9370757 30.8966849 12.5043219 26.4286048 11 27.9442142 18 35 25 27.9447984 23.4976486 26.4279038"></polygon>
                <polygon points="27.9370283 11 26.4200009 12.5017096 30.8922613 16.9361345 20 16.9361345 20 19.063286 30.8922613 19.063286 26.4200009 23.4945813 27.9357419 25 35 17.9997102"></polygon>
            </g>
        </g>
    </g>
</svg>