<svg height="35" viewBox="0 0 35 35" width="35" xmlns="http://www.w3.org/2000/svg"><g><path d="m17.5 0c-9.64949568 0-17.5 7.85050432-17.5 17.5 0 9.6494957 7.85050432 17.5 17.5 17.5 9.6494957 0 17.5-7.8505043 17.5-17.5 0-9.64949568-7.8505043-17.5-17.5-17.5zm0 31.2762968c-7.59618156 0-13.77665706-6.179755-13.77665706-13.7762968 0-7.59654179 6.1804755-13.77629683 13.77665706-13.77629683 7.5961816 0 13.7766571 6.17975504 13.7766571 13.77629683 0 7.5965418-6.1804755 13.7762968-13.7766571 13.7762968z"/><path d="m26.1963929 17.2677758h-7.5285726v-9.46226976c0-.79627253-.6176105-1.44186968-1.3793647-1.44186968-.7617541 0-1.3793647.64559715-1.3793647 1.44186968v10.90413946c0 .7962725.6176106 1.4418697 1.3793647 1.4418697h8.9079373c.7617541 0 1.3793647-.6455972 1.3793647-1.4418697 0-.7962726-.6176106-1.4418697-1.3793647-1.4418697z"/></g></svg>