<svg height="75" viewBox="0 0 75 75" width="75" xmlns="http://www.w3.org/2000/svg"><g fill="none" fill-rule="evenodd"><rect fill="#fff" fill-rule="evenodd" height="75" rx="37.5" width="75"/><rect height="74" rx="37" stroke="#9b9b9b" width="74" x=".5" y=".5"/><g fill="#000" fill-rule="nonzero"><circle cx="21" cy="54" r="1"/><circle cx="39" cy="37" r="1"/><path d="m47.12232 27.8788914c-.5668932-.5668274-1.3206202-.8788914-2.12232-.8788914s-1.555497.3122045-2.12232.8788914c-1.17024 1.1700295-1.17024 3.0737325 0 4.2436918.5852254.5850148 1.3536322.8774168 2.12232.8774168.7684771 0 1.5372351-.2925425 2.12232-.8774168 1.17024-1.1700295 1.17024-3.0737325 0-4.2436918zm-.9971729 3.2466177c-.6204148.6201957-1.6299496.6201957-2.2502239 0-.6204148-.6201957-.6204148-1.6294181 0-2.249684.3005496-.3004775.7000649-.4659192 1.1250768-.4659192s.8245272.1654417 1.1250768.4659192c.6204148.6202659.6204148 1.6294883.0000703 2.249684z"/><path d="m28.6049419 48.1884659c-.3523244-.1754527-.7800251-.0320102-.9554776.3202437l-.8487297 1.7044887c-.3690747.7410604-1.1113406 1.2366149-1.9373581 1.2931118l-.9871328.0675691c-.1668643.0111432-.276593-.0719697-.3273408-.1227175s-.1340735-.1606897-.1227173-.3274123l.067569-.9870632c.0565678-.8259478.5521215-1.5682858 1.2931099-1.937361l1.7044152-.848731c.3523243-.1754527.4956956-.603225.3202432-.9554789-.1753814-.3522539-.6031532-.4956964-.9554775-.3202437l-1.7044152.848731c-1.1918272.5935013-1.9887446 1.7873177-2.0797357 3.1157045l-.067569.9870632c-.0364817.5328169.1591279 1.0549163.5367197 1.4325087.3476399.3476404.8178552.541121 1.3061694.541121.0419468 0 .0841774-.0014195.1263371-.0043295l.9871328-.0675692c1.3283848-.0909202 2.5221994-.8877678 3.1156999-2.0797388l.8487297-1.7044177c.1754524-.3523248.0320811-.7800262-.3201722-.9554789z"/><path d="m54.5264438 20.4598581c-.322054-.3191279-.7657243-.4860151-1.2163676-.4565158l-.6390493.0409825c-5.7300464.3679495-11.0925779 3.1500211-14.7125584 7.632939l-1.5042406 1.8627138-3.9364972-.1162778c-.0066995-.0002063-.0134673-.0002751-.0200985-.0002751-3.1219623 0-6.0570908 1.2228765-8.2647095 3.4433629l-4.0318624 4.0555575c-.1917558.1928794-.2526665.4813391-.1553188.7358988.0973477.2546284.3345643.427773.6054151.441663l8.5346033.4410442-.3479633.4309361c-.1753489.2172215-.2031039.519365-.0701396.765123.1337164.2472708.2738588.4906221.420017.730054l-2.0239295 2.4168039c-.1730246.206632-.210282.4958481-.0955019.7400934.4420979.9396428 1.0288502 1.7839117 1.7441916 2.5093585.7327055.7431877 1.5894882 1.3509128 2.5464215 1.8064659.0935194.0445583.1938067.0663561.2934787.0663561.1545668 0 .3078347-.0525348.4325272-.1542349.4360138-.3557784.9386806-.7777753 1.4248722-1.1858134.3465277-.2908663.7010537-.5884027 1.032405-.862766.1977717.1197159.3980044.2357874.6012451.3469767.1028166.056248.2155458.0839593.3278648.0839593.1494396 0 .2979222-.048959.4208373-.1449518l.4678022-.3651301.4403889 8.6207844c.0139459.2724379.1860134.5110446.43909.6089628.0801205.0309432.1633856.046071.2461038.046071.178767 0 .3543209-.0703443.4854395-.2023l4.0319308-4.0555575c2.2076187-2.2205551 3.4233026-5.1728144 3.4233026-8.3131399v-3.7816067l1.590582-1.2415113c4.7668238-3.7207517 7.6699589-9.3313785 7.9650099-15.3933639l.0163386-.3359748c.022286-.4541091-.1497131-.8974912-.4716305-1.2166878zm-32.2633079 16.3409144 2.9403925-2.9576228c1.9459284-1.9573313 4.5326151-3.0363562 7.2841913-3.039038l2.8770208.0849908-5.1073357 6.3247966zm10.3671873 8.8052061c-.358286.3006307-.7255958.6089628-1.0664495.8909588-.6592845-.3591478-1.2556758-.8072745-1.7768688-1.3359225-.504786-.5119385-.9344421-1.0948403-1.2809014-1.7369467l1.4818178-1.7694715c.4480455.6046307.9384755 1.1773556 1.4682821 1.7139112.0004101.0004126.0008203.0007564.0012305.001169.0001367.0001375.0002734.0003438.0004102.0004813.000205.0002063.0004101.0003438.0006152.0005501.5874359.5946602 1.2193072 1.1403612 1.889598 1.6338714-.2366697.1976241-.4791503.4011618-.7177341.6013989zm11.4233823-3.176976c0 2.7714821-1.0729438 5.3770398-3.0213333 7.3368466l-2.9403924 2.9576228-.4103096-8.0309376 6.3719669-4.9736088v2.710077zm9.5572325-20.4839382c-.275431 5.658967-2.9855798 10.8966248-7.4355451 14.3700369l-10.7643029 8.4020502c-.8926728-.5246597-1.7247085-1.1441432-2.4861944-1.8460045l3.6290727-3.6503387c.2679796-.2695499.2679796-.7067434 0-.9763621-.268048-.2696187-.7026261-.2696187-.970674 0l-3.6256546 3.6469006c-.6665993-.7422938-1.2569747-1.5499809-1.7596416-2.4138472l8.8259628-10.9297683c3.3792774-4.1848315 8.3853003-6.7820001 13.7344329-7.1254012l.6390493-.0409826c.0837436-.005226.1398005.0365818.1656414.0621615.0257726.025511.0683622.0810025.0642604.1656495z"/></g></g></svg>