<svg height="10" viewBox="0 0 236 10" width="236" xmlns="http://www.w3.org/2000/svg"><path d="m251.902477 4.30467114c-1.16-.123-2.315-.094-3.479-.109-1.154-.014-2.309-.066-3.459-.175-2.563-.24-5.127-.483-7.691-.705-4.938-.426-9.882-.762-14.832-.943-4.54-.166-9.083-.264-13.626-.264-1.176 0-2.353.007-3.529.02-4.503.052-9.008.11-13.51.234-10.53.286-21.058.583-31.58 1.074-10.279.48-20.558.999-30.831 1.629-5.047.31-10.098.602-15.145.944-5.455.369-10.916.693-16.3689999 1.112-11.254.865-22.508 1.731-33.761 2.602-9.768.75599996-19.499 1.89799996-29.189 3.33399996-6.259.926-12.496 2.011-18.71 3.192-.005 0-.003.009.001.009 7.144.457 14.293.704 21.452.759 4.684.038 9.357-.052 14.038-.243 3.021-.124 6.039-.288 9.055-.501 1.851-.129 3.699-.328 5.547-.503 4.949-.471 9.898-.946 14.849-1.407 5.661-.529 11.318-1.106 16.984-1.583 5.8429999-.493 11.6859999-.986 17.5289999-1.478 5.248-.443 10.505-.8 15.757-1.198 5.126-.38699996 10.257-.68199996 15.387-1.01199996 5.17-.332 10.345-.583 15.517-.856 5.264-.277 10.537-.43 15.804-.631 9.621-.368 19.248-.488 28.875-.552 5.354-.035 10.706-.226 16.057-.408 5.275-.179 10.551-.425 15.818-.743 2.142-.128 4.294-.223 6.431-.438 1.036-.104 2.067-.229 3.085-.443.904-.192 1.79-.455 2.7-.622h-.001c.276-.036.548-.064.826-.086.005 0 .005-.009 0-.009" fill="#151514" fill-rule="evenodd" transform="matrix(.99939083 .0348995 -.0348995 .99939083 -15.584443 -8.672357)"/></svg>