<svg enable-background="new 0 0 512 512" viewBox="0 0 512 512" xmlns="http://www.w3.org/2000/svg"><g fill="#a7a7a7"><path d="m1 53c2.5 0 1.7-2 1.9-3.3 3-20.7 13.7-35.8 33.7-42.3 16.1-5.2 32.9-4.6 47.9 4 9.4 5.5 16.6 14 20.4 24.5 2.8 7.8 4.9 15.9 4 24.2-2.1 20.9-11.5 38.3-34.5 46.4-17.4 6-34.3 3.8-50.2-5.7-1-3.6-3.5-5.4-7.1-6-.1-1.4-.3-2.8-2.2-2.8-7.2-8-10.6-17.7-12-28.2-.2-1.2.3-2.9-1.9-2.8 0-2.7 0-5.3 0-8z"/><path d="m276.2 216.1c4.3-2.6 6-6.4 8.2-9.5 10.9-15 24.4-26.6 41.2-34.9 23-11.3 47.4-12.5 72-10.2 18.9 1.7 36.8 8.1 53.1 18.5 19.4 12.4 33.3 29.6 42.8 50.2 5.8 12.5 9.6 25.8 11.9 39.6 2.1 12.9 3.7 25.6 3.7 38.7-.1 65-.1 130 .1 195 0 4.6-1.3 5.8-5.8 5.7-30.7-.2-61.3-.2-92 0-4.5 0-5.5-1.3-5.5-5.6.1-61.3.4-122.7-.1-184-.1-13.9-2-27.7-9.2-40.4-6.4-11.2-15.3-19.2-27-23.8-15.7-6.2-31.9-7.4-48.3-2.8-16.6 4.6-28.1 15.5-36.3 30.3-4.6 8.3-6.2 17-7.5 26.3-1.3 10-1.1 19.8-1.1 29.7-.2 54.7-.2 109.3 0 164 0 5-1.2 6.4-6.3 6.3-30.3-.3-60.7-.2-91 0-4.2 0-5.7-1.3-5.6-5.2.1-2.8.3-5.6.3-8.4 0-105.5.1-211-.1-316.5 0-4.4.9-6 5.7-6 30.5.2 61 .2 91.5 0 4.1 0 5.5 1 5.4 5.3-.3 12.2-.1 24.5-.1 37.7z"/><path d="m109 176.1c0 3.5.1 7 .1 10.5v316c0 6.4 0 6.4-6.5 6.4-31.8 0-63.7 0-95.5 0-.1-2.5-.2-5-.2-7.5 0-78.8 0-157.5 0-236.3 0-28.1.1-56.3-.1-84.4 0-3.6.9-4.9 4.7-4.9 32.5.2 65 .1 97.5.2z"/></g><path d="m109 176.1c-32.5 0-64.9 0-97.4-.2-3.8 0-4.7 1.2-4.7 4.9.1 28.1 0 56.2 0 84.4v236.3c0 2.5.1 5 .2 7.5-1.7.1-3-.3-3-2.3 0-1.3 0-2.7 0-4 0-106.8 0-213.5 0-320.3 0-7.6.7-8.3 8.2-8.3 30.5 0 61 0 91.4.1 1.8-.1 4.5-1.5 5.3 1.9z" fill="#e0e0e0"/><path d="m17.1 94.9c3.6.6 6.1 2.4 7.1 6-3.1-1.2-5.4-3.2-7.1-6z" fill="#e0e0e0"/><path d="m14.9 92.1c1.9 0 2 1.4 2.2 2.8-2.1.1-2.1-1.3-2.2-2.8z" fill="#e0e0e0"/></svg>