<?xml version="1.0" encoding="UTF-8"?>
<svg width="33px" height="32px" viewBox="0 0 33 32" version="1.1" xmlns="http://www.w3.org/2000/svg" xmlns:xlink="http://www.w3.org/1999/xlink">
    <!-- Generator: Sketch 46.2 (44496) - http://www.bohemiancoding.com/sketch -->
    <title>icon_linkedin</title>
    <desc>Created with Sketch.</desc>
    <defs></defs>
    <g id="Page-1" stroke="none" stroke-width="1" fill="none" fill-rule="evenodd" opacity="0.513643569">
        <g id="MH-Home-2" transform="translate(-1104.000000, -3352.000000)" fill="#9B9B9B">
            <g id="Footer" transform="translate(0.000000, 3328.000000)">
                <g id="Group-2" transform="translate(1010.000000, 24.000000)">
                    <g id="icon_linkedin" transform="translate(94.000000, 0.000000)">
                        <path d="M24.5,23.985 L21.185,23.985 L21.185,18.797 C21.185,17.56 21.163,15.969 19.462,15.969 C17.737,15.969 17.474,17.317 17.474,18.709 L17.474,23.985 L14.162,23.985 L14.162,13.317 L17.34,13.317 L17.34,14.776 L17.386,14.776 C17.828,13.937 18.91,13.052 20.523,13.052 C23.88,13.052 24.5,15.261 24.5,18.134 L24.5,23.985 Z M10.424,11.86 C9.359,11.86 8.5,10.998 8.5,9.937 C8.5,8.876 9.359,8.014 10.424,8.014 C11.484,8.014 12.345,8.876 12.345,9.937 C12.345,10.998 11.484,11.86 10.424,11.86 L10.424,11.86 Z M12.082,23.985 L8.763,23.985 L8.763,13.317 L12.082,13.317 L12.082,23.985 Z M16.5,0 C7.663,0 0.5,7.163 0.5,16 C0.5,24.836 7.663,32 16.5,32 C25.337,32 32.5,24.836 32.5,16 C32.5,7.163 25.337,0 16.5,0 L16.5,0 Z" id="Fill-209"></path>
                    </g>
                </g>
            </g>
        </g>
    </g>
</svg>