<svg height="32" viewBox="0 0 32 32" width="32" xmlns="http://www.w3.org/2000/svg"><path d="m24 16.604c0 1.295-.16 2.59-.16 2.59s-.156 1.102-.636 1.588c-.608.637-1.29.64-1.603.677-2.239.162-5.601.167-5.601.167s-4.16-.038-5.44-.16c-.356-.067-1.156-.047-1.764-.684-.48-.486-.636-1.588-.636-1.588s-.16-1.295-.16-2.59v-1.214c0-1.295.16-2.589.16-2.589s.156-1.103.636-1.589c.608-.637 1.29-.64 1.603-.677 2.239-.162 5.598-.162 5.598-.162h.006s3.359 0 5.598.162c.313.037.995.04 1.603.677.48.486.636 1.589.636 1.589s.16 1.294.16 2.589zm-8-16.604c-8.837 0-16 7.163-16 16 0 8.836 7.163 16 16 16s16-7.164 16-16c0-8.837-7.163-16-16-16zm-1.6518 18.075 4.323-2.24-4.324-2.256z" fill="#9b9b9b" fill-rule="evenodd" opacity=".513644"/></svg>