<svg height="23" viewBox="0 0 148 23" width="148" xmlns="http://www.w3.org/2000/svg"><g fill="#747c83" fill-rule="evenodd"><g transform="translate(36.967925 7.627551)"><path d="m16.5226415 1.78038686v12.56673994c0 .5263159-.4280813.9470909-.9628586.9470909-.5351017 0-.984479-.420775-.984479-.9470909v-11.95614087l-4.94444724 12.01905947c-.23522852.5262091-.748818.8841723-1.36975211.8841723-.6205017 0-1.13398308-.3579632-1.3697521-.8841723l-4.94401488-12.01905947v11.95614087c0 .5263159-.44926917.9470909-.98447892.9470909-.53520974 0-.96285865-.420775-.96285865-.9470909v-12.56673994c0-.75758723.6205017-1.3892304 1.39093997-1.3892304h.70633417c.57769357 0 1.09160735.37900727 1.3057561.88427907l4.85807431 11.91383907 4.85861485-11.91383907c.2141487-.5052718.727522-.88427907 1.305648-.88427907h.7063341c.7704383 0 1.39094.63164317 1.39094 1.3892304"/><path d="m26.6973277 12.1119722v-1.7668166h-2.3349626c-2.0140109 0-3.2351645.4628394-3.2351645 1.6617811 0 .9042232.5353165 1.682596 2.2707939 1.682596 1.3282819 0 2.5710777-.7572376 3.2993332-1.5775605m1.9498421-3.74381084v5.95254504c0 .5259247-.4498304.9463869-.9855797.9463869-.5356412 0-.9642624-.4204622-.9642624-.9463869v-.5468464c-.7712151.7777323-2.0140108 1.598589-4.0275888 1.598589-1.863923 0-3.4923804-1.17802-3.4923804-3.1554413 0-1.9773145 1.5854979-3.4071422 4.9276824-3.4071422h2.5922868v-.16822758c0-1.87206553-.9426202-2.60848816-2.870712-2.60848816-1.1998363 0-2.0569703.25255485-2.8493947.50500296-.0860272.02092171-.1930472.04184341-.2785334.04184341-.4286211 0-.7929653-.33624167-.7929653-.79929448 0-.35727012.1930472-.65198862.5574996-.79929449 1.006789-.42056895 2.184875-.75691736 3.7059877-.75691736 3.1280362 0 4.4779602 2.08213652 4.4779602 4.14367156"/><path d="m40.8113208 5.31059061c0 .16835346-.0428824.29480561-.106936.44220841l-3.7212618 8.76207578c-.1922686.4212578-.6416155.7793429-1.1759711.7793429h-.2138718c-.5346796 0-.9838104-.3580851-1.1765111-.7793429l-3.7211538-8.76207578c-.0640536-.1474028-.106936-.27385495-.106936-.44220841 0-.52665236.4277437-.96875388.9625313-.96875388.3849693 0 .7486594.2314192.8767665.54770991l3.272239 8.17182326 3.272131-8.17182326c.1281071-.31629071.4919053-.54770991.8768746-.54770991.5341395 0 .9620992.44210152.9620992.96875388"/><path d="m44.2490589 8.91496283h6.3222143c-.1284879-2.18757804-1.800347-3.07087112-3.1719317-3.07087112-1.371693 0-3.0219029.88329308-3.1502826 3.07087112m7.8868016 4.75345107c0 .3362384-.2571924.6099258-.557575.7783653-.9428224.5258129-1.8857531.9256698-3.75029.9256698-3.4934223 0-5.550637-2.0408073-5.550637-5.57429984 0-2.83945367 1.5642626-5.57365936 5.121983-5.57365936 3.3003115 0 5.1006585 2.50289499 5.1006585 5.30018542 0 .52581288-.3856804.94659128-.9859043.94659128h-7.2650368c.214327 1.8929691 1.4357746 3.1127141 3.75029 3.1127141 1.2861787 0 2.1001884-.2523389 2.8934149-.6518756.128488-.062978.2356515-.0838995.3857886-.0838995.4498703 0 .8573081.3361317.8573081.8202084"/><path d="m64.8622642 8.35704553v5.98846067c0 .5272165-.4484958.9487115-.9826094.9487115-.5348695 0-.9625275-.421495-.9625275-.9487115v-5.77755266c0-1.60251565-.6836483-2.57230728-2.3508776-2.57230728-1.5390723 0-2.6505945.96979163-3.5056946 2.02411767v6.32574227c0 .5272165-.4488196.9487115-.9833651.9487115-.5344376 0-.9620957-.421495-.9620957-.9487115v-9.04571727c0-.54818962.4276581-.96979163.9620957-.96979163.5345455 0 .9833651.42160201.9833651.96979163v.86439113c.8977472-.96979163 2.073078-1.93969026 3.9757838-1.93969026 2.4366035 0 3.8259253 1.87644996 3.8259253 4.13255573"/><path d="m80.2754717 1.35929836v12.98782164c0 .5264265-.4496543.9470977-.9844834.9470977-.5355858 0-.963622-.4206712-.963622-.9470977v-5.59926352h-8.1103143v5.59926352c0 .5264265-.4497623.9470977-.9844834.9470977-.534721 0-.9627573-.4206712-.9627573-.9470977v-12.98782164c0-.52631967.4280363-.9681419.9627573-.9681419.5347211 0 .9844834.44182223.9844834.9681419v5.59937037h8.1103143v-5.59937037c0-.52631967.4280362-.9681419.963622-.9681419.5348291 0 .9844834.44182223.9844834.9681419"/><path d="m85.8294423 5.28137617v9.02696943c0 .5262368-.4256163.9467564-.9789175.9467564-.5325578 0-.9581742-.4205196-.9581742-.9467564v-9.02696943c0-.54705993.4256164-.96779312.9581742-.96779312.5533012 0 .9789175.42073319.9789175.96779312m.1913124-4.1243599c0 .58902647-.4894588 1.07318999-1.0847842 1.07318999h-.1283298c-.5955404 0-1.0849992-.48416352-1.0849992-1.07318999v-.08436021c0-.58891968.4894588-1.07265606 1.0849992-1.07265606h.1283298c.5953254 0 1.0847842.48373638 1.0847842 1.07265606"/><path d="m98.3830189 5.31059061c0 .16835346-.0432055.29480561-.1073657.44220841l-3.7209672 8.76207578c-.1922646.4212578-.64171.7793429-1.1760542.7793429h-.2138673c-.5342363 0-.9835737-.3580851-1.1760542-.7793429l-3.7210752-8.76207578c-.0640522-.1474028-.1072577-.27385495-.1072577-.44220841 0-.52665236.4277346-.96875388.9629429-.96875388.3843131 0 .7481036.2314192.8762079.54770991l3.27271 8.17182326 3.2716298-8.17182326c.1281044-.31629071.4917868-.54770991.8764239-.54770991.5352084 0 .962727.44210152.962727.96875388"/><path d="m101.820674 8.91496283h6.321946c-.128374-2.18757804-1.799729-3.07087112-3.170931-3.07087112-1.372068 0-3.022641.88329308-3.151015 3.07087112m7.886467 4.75345107c0 .3362384-.256748.6099258-.557118.7783653-.943324.5258129-1.885674.9256698-3.750564.9256698-3.49295 0-5.5504024-2.0408073-5.5504024-5.57429984 0-2.83945367 1.5645214-5.57365936 5.1226324-5.57365936 3.300171 0 5.100009 2.50289499 5.100009 5.30018542 0 .52581288-.386097.94659128-.985862.94659128h-7.265162c.214209 1.8929691 1.436363 3.1127141 3.750564 3.1127141 1.286016 0 2.100207-.2523389 2.893292-.6518756.128482-.062978.2351-.0838995.385448-.0838995.450284 0 .857163.3361317.857163.8202084"/></g><g transform="translate(.158491)"><path d="m19.2347697 15.0267503c.5241599-.6091391.9522985-1.8689931.9522985-2.79712v-2.76081584c0-.92925648.8584703-1.68835061 1.9040247-1.68835061l1.9152766-.00062756c1.0498454 0 1.9083793.75972169 1.9083793 1.68897817v3.44268894c0 .9292565-.8585339 1.6882565-1.9083793 1.6882565h-1.0672316c-1.0467623.0016003-2.3217062.4936685-2.8305777 1.0934256-.505852.6001965-.9224209 1.8537749-.9224209 2.7803957v2.7942333c0 .9291623-.8585339 1.6879113-1.9072351 1.6879113h-1.9145773c-1.0471437 0-1.9058365-.758749-1.9058365-1.6879113v-3.4422497c0-.9302919.8586928-1.6892606 1.9058365-1.6892606h1.0135792c1.0482244 0 2.3339751-.4992223 2.8568636-1.1095539"/><path d="m24.1111315.010794c1.0478112 0 1.9073304.75834106 1.9073304 1.6882251v3.4419045c0 .92978991-.8595192 1.68926057-1.9073304 1.68926057h-1.9155308c-1.0499089 0-1.9088878-.75947066-1.9088878-1.68926057v-3.4419045c0-.92988404.8589789-1.6882251 1.9088878-1.6882251"/><path d="m25.954257 15.7075252c.5233653.6124339.9504868 1.8699973.9504868 2.7991597v2.7594038c0 .9308881.8605363 1.6878799 1.9070761 1.6878799h1.9157851c1.0480972 0 1.9055822-.7569918 1.9055822-1.6878799v-3.4411515c0-.9301664-.857485-1.688633-1.9055822-1.688633h-1.0681851c-1.0465716 0-2.3211977-.4919113-2.8303553-1.092547-.5060744-.601734-.9237559-1.8523629-.9237559-2.7815253v-2.79338606c0-.92925648-.8564678-1.68897817-1.9063768-1.68897817l-1.9154673.00059618c-1.0468258 0-1.906345.75912551-1.906345 1.68838199v3.44268896c0 .9292565.8595192 1.6898567 1.906345 1.6898567l1.0139606-.0016316c1.050354 0 2.3328945.4988458 2.8568318 1.1077653"/><path d="m5.78727675 15.0450123c.52317455-.6086685.95121778-1.8683343.95121778-2.797779v-2.76003139c0-.92916235.85831139-1.68835061 1.90583652-1.68835061l1.91610295-.00191406c1.0483197 0 1.9059319.76110232 1.9059319 1.69026467v3.44293999c0 .9290054-.8576122 1.6883506-1.9059319 1.6883506h-1.06802621c-1.04835152.0010041-2.3222148.4930723-2.83022809 1.0934256-.50772723.5999769-.92432801 1.8523943-.92432801 2.7798936v2.7939195c0 .9292565-.85646788 1.6882251-1.90558224 1.6882251h-1.91476799c-1.04847866 0-1.90672648-.7589686-1.90672648-1.6882251v-3.4421869c0-.929382.85824782-1.6888526 1.90672648-1.6888526h1.01307062c1.04733442 0 2.33267194-.4988459 2.85670467-1.1096794"/><path d="m12.5072409 15.7260068c.5241916.6111474.9512495 1.8691187.9512495 2.7996617v2.7594038c0 .929884.858661 1.68788 1.9058365 1.68788h1.9145455c1.0487012 0 1.9072351-.757996 1.9072351-1.68788v-3.4426889c0-.9297586-.8585339-1.6877231-1.9072351-1.6877231h-1.0665959c-1.0479701 0-2.3222465-.4921937-2.8294334-1.0927981-.5085219-.6018595-.9238513-1.8527708-.9238513-2.7810232v-2.79363709c0-.92916235-.8581524-1.69026467-1.9071397-1.69026467l-1.91489508.00188268c-1.04797011 0-1.90593187.75921964-1.90593187 1.68838199v3.44290859c0 .9290055.85796176 1.6893861 1.90593187 1.6893861l1.01319775-.0010041c1.04898723 0 2.33407043.4984693 2.85708613 1.1075143"/></g></g></svg>