<svg height="25" viewBox="0 0 160 25" width="160" xmlns="http://www.w3.org/2000/svg"><g fill="none" fill-rule="evenodd"><path d="m-60-27h1294v80h-1294z" fill="#fff"/><g fill="#ee5c6e"><g transform="translate(40.057567 8.290816)"><path d="m17.9035425 1.93520311v13.65949999c0 .5720825-.4638587 1.0294466-1.0433308 1.0294466-.5798234 0-1.066758-.4573641-1.066758-1.0294466v-12.99580535l-5.3576858 13.06419515c-.254888.5719664-.81140142.9610568-1.4842309.9610568-.67236093 0-1.22875717-.3890904-1.4842309-.9610568l-5.35721728-13.06419515v12.99580535c0 .5720825-.48681743 1.0294466-1.06675802 1.0294466-.57994058 0-1.0433308-.4573641-1.0433308-1.0294466v-13.65949999c0-.82346439.67236093-1.51003304 1.50718957-1.51003304h.76536695c.62597506 0 1.18283984.41196441 1.41488636.96117289l5.26409412 12.94982504 5.2646798-12.94982504c.2320465-.54920848.7883256-.96117289 1.4147692-.96117289h.765367c.8348286 0 1.5071895.68656865 1.5071895 1.51003304"/><path d="m28.9285913 13.1651872v-1.9204528h-2.5301102c-2.1823344 0-3.5055475.5030862-3.5055475 1.8062838 0 .9828513.5800563 1.8289087 2.4605784 1.8289087 1.4392948 0 2.7859588-.8230844 3.5750793-1.7147397m2.1128026-4.06935963v6.47015763c0 .5716572-.4874255 1.0286814-1.0679508 1.0286814-.5804081 0-1.0448518-.4570242-1.0448518-1.0286814v-.5943982c-.8356704.8453612-2.1823344 1.7375967-4.3641997 1.7375967-2.0197029 0-3.7842607-1.2804566-3.7842607-3.4298275 0-2.1492549 1.7180079-3.70341544 5.3395198-3.70341544h2.8089406v-.18285606c0-2.03485384-1.021401-2.83531322-3.1106355-2.83531322-1.3001141 0-2.2288843.27451614-3.0875365.54891626-.093217.02274099-.2091814.04548197-.3018122.04548197-.4644437 0-.8592385-.36548008-.8592385-.86879836 0-.38833708.2091815-.70868327.6040935-.86879835 1.0909326-.45714016 2.3674786-.82273627 4.0157203-.82273627 3.3894659 0 4.8522115 2.26319188 4.8522115 4.50399084"/><path d="m44.2221794 5.7723811c0 .18299289-.0464663.32044088-.1158732.48066131l-4.0322711 9.52399539c-.2083377.4578889-.6952393.8471119-1.2742543.8471119h-.2317465c-.5793661 0-1.0660336-.389223-1.2748395-.8471119l-4.0321541-9.52399539c-.0694069-.16022043-.1158732-.29766842-.1158732-.48066131 0-.57244822.4634929-1.05299334 1.0429761-1.05299334.4171436 0 .8112296.2515426.9500433.59533685l3.5457207 8.88241659 3.5456035-8.88241659c.1388138-.34379425.5330169-.59533685.9501605-.59533685.5787809 0 1.0425078.48054512 1.0425078 1.05299334"/><path d="m47.947231 9.69017699h6.8506015c-.1392265-2.37780222-1.9508133-3.33790339-3.43703-3.33790339-1.486334 0-3.2744623.96010117-3.4135715 3.33790339m8.5459512 5.16679461c0 .3654766-.2786876.6629629-.604175.8460493-1.0216201.5715357-2.0433574 1.0061628-4.0637254 1.0061628-3.7853895 0-6.0145386-2.2182688-6.0145386-6.0590216 0-3.08636265 1.6949978-6.05832537 5.5500593-6.05832537 3.5761392 0 5.5269526 2.72053804 5.5269526 5.76107107 0 .5715358-.4179141 1.0289036-1.0683026 1.0289036h-7.8722215c.2322397 2.0575752 1.5557713 3.383385 4.0637253 3.383385 1.3936727 0 2.2757143-.2742815 3.1352357-.7085605.1392266-.0684544.2553464-.0911951.4180315-.0911951.4874687 0 .9289587.3653605.9289587.8915308"/><path d="m70.2832114 9.08374515v6.50919635c0 .5730614-.4859793 1.0312082-1.0647322 1.0312082-.5795719 0-1.042972-.4581468-1.042972-1.0312082v-6.27994852c0-1.74186484-.740785-2.79598618-2.5473552-2.79598618-1.6677022 0-2.8721213 1.05412134-3.7986875 2.2001279v6.8758068c0 .5730614-.4863303 1.0312082-1.0655512 1.0312082-.5791039 0-1.042504-.4581468-1.042504-1.0312082v-9.83230136c0-.59585828.4634001-1.05412133 1.042504-1.05412133.5792209 0 1.0655512.45826305 1.0655512 1.05412133v.93955557c.9727775-1.05412133 2.2463381-2.10835898 4.308065-2.10835898 2.6402458 0 4.1456819 2.03961953 4.1456819 4.49190842"/><path d="m86.9845976 1.47749821v14.11719749c0 .5722027-.4872347 1.029454-1.0667628 1.029454-.5803481 0-1.044158-.4572513-1.044158-1.029454v-6.08615604h-8.7881442v6.08615604c0 .5722027-.4873518 1.029454-1.0667629 1.029454s-1.043221-.4572513-1.043221-1.029454v-14.11719749c0-.57208659.4638099-1.05232814 1.043221-1.05232814s1.0667629.48024155 1.0667629 1.05232814v6.08627215h8.7881442v-6.08627215c0-.57208659.4638099-1.05232814 1.044158-1.05232814.5795281 0 1.0667628.48024155 1.0667628 1.05232814"/><path d="m93.0027485 5.74062627v9.81192323c0 .5719966-.4611878 1.0290832-1.0607319 1.0290832-.577067 0-1.0382547-.4570866-1.0382547-1.0290832v-9.81192323c0-.59463036.4611877-1.05194904 1.0382547-1.05194904.5995441 0 1.0607319.45731868 1.0607319 1.05194904m.2073016-4.48299989c0 .64024616-.530366 1.16651086-1.1754465 1.16651086h-.1390551c-.6453135 0-1.1756794-.5262647-1.1756794-1.16651086v-.09169588c0-.64013008.5303659-1.1659305 1.1756794-1.1659305h.1390551c.6450805 0 1.1754465.52580042 1.1754465 1.1659305"/><path d="m106.605506 5.7723811c0 .18299289-.046816.32044088-.116339.48066131l-4.031951 9.52399539c-.208334.4578889-.695342.8471119-1.274345.8471119h-.231741c-.578886 0-1.0657774-.389223-1.2743448-.8471119l-4.0320689-9.52399539c-.0694054-.16022043-.1162219-.29766842-.1162219-.48066131 0-.57244822.4634831-1.05299334 1.0434222-1.05299334.4164325 0 .8106272.2515426.9494381.59533685l3.5462313 8.88241659 3.54506-8.88241659c.138811-.34379425.532889-.59533685.949672-.59533685.579939 0 1.043188.48054512 1.043188 1.05299334"/><path d="m110.330467 9.69017699h6.850312c-.139104-2.37780222-1.950144-3.33790339-3.435946-3.33790339-1.486741 0-3.275262.96010117-3.414366 3.33790339m8.54559 5.16679461c0 .3654766-.278207.6629629-.603681.8460493-1.022163.5715357-2.04327 1.0061628-4.064022 1.0061628-3.784877 0-6.014284-2.2182688-6.014284-6.0590216 0-3.08636265 1.695278-6.05832537 5.550763-6.05832537 3.575987 0 5.526249 2.72053804 5.526249 5.76107107 0 .5715358-.418366 1.0289036-1.068257 1.0289036h-7.872358c.232113 2.0575752 1.55641 3.383385 4.064023 3.383385 1.393496 0 2.275735-.2742815 3.135103-.7085605.13922-.0684544.254749-.0911951.417662-.0911951.487917 0 .928802.3653605.928802.8915308"/></g><g transform="translate(.171737)"><path d="m20.8423403 16.3334243c.5679672-.6621078 1.0318881-2.0315143 1.0318881-3.0403479v-3.0008868c0-1.01006136.930218-1.83516368 2.0631561-1.83516368l2.0753482-.00068213c1.1375876 0 2.0678746.82578445 2.0678746 1.83584581v3.7420532c0 1.0100614-.930287 1.8350614-2.0678746 1.8350614h-1.1564268c-1.1342468.0017395-2.5157458.5365962-3.0671469 1.1885062-.5481292.6523874-.9995134 2.0149727-.9995134 3.0221691v3.0372101c0 1.0099591-.930287 1.8346863-2.0666347 1.8346863h-2.0745906c-1.13466 0-2.0651192-.8247272-2.0651192-1.8346863v-3.7415757c0-1.0111869.9304592-1.8361528 2.0651192-1.8361528h1.0982904c1.1358311 0 2.5290401-.542633 3.0956296-1.2060368"/><path d="m26.1262504.01173261c1.1353834 0 2.066738.82428376 2.066738 1.83502728v3.74120055c0 1.0106412-.9313546 1.83615279-2.066738 1.83615279h-2.0756238c-1.1376564 0-2.0684256-.82551159-2.0684256-1.83615279v-3.74120055c0-1.01074352.9307692-1.83502728 2.0684256-1.83502728"/><path d="m28.1234175 17.073397c.5671062.6656889 1.0299249 2.0326057 1.0299249 3.0425648v2.999352c0 1.0118349.9324567 1.8346521 2.0664624 1.8346521h2.0758993c1.1356934 0 2.0648438-.8228172 2.0648438-1.8346521v-3.740382c0-1.0110505-.9291504-1.8354707-2.0648438-1.8354707h-1.15746c-1.1340402 0-2.5151948-.5346862-3.0669058-1.1875511-.5483703-.6540587-1.00096-2.013438-1.00096-3.023397v-3.0362893c0-1.01006135-.9280483-1.8358458-2.0657048-1.8358458l-2.0755549.00064802c-1.1343156 0-2.0656703.82513643-2.0656703 1.83519778v3.7420532c0 1.0100614.9313547 1.8368009 2.0656703 1.8368009l1.0987037-.0017736c1.1381386 0 2.5278691.5422238 3.0955952 1.2040928"/><path d="m6.27095585 16.3532742c.56689954-.6615962 1.03071704-2.0307981 1.03071704-3.0410641v-3.0000341c0-1.00995908.93004587-1.83516372 2.06511925-1.83516372l2.07624376-.00208049c1.1359344 0 2.0652225.82728513 2.0652225 1.83724421v3.742326c0 1.0097886-.9292881 1.8351638-2.0652225 1.8351638h-1.1572879c-1.13596886.0010914-2.51629689.5359481-3.06676805 1.1885061-.55016119.6521487-1.00157991 2.013472-1.00157991 3.0216235v3.036869c0 1.0100614-.92804829 1.8350273-2.06484373 1.8350273h-2.07479719c-1.13610662 0-2.06608361-.8249659-2.06608361-1.8350273v-3.7415075c0-1.0101978.92997699-1.8357094 2.06608361-1.8357094h1.0977393c1.13486674 0 2.52762799-.5422238 3.09545743-1.2061733"/><path d="m13.5525496 17.0934857c.5680017.6642906 1.0307515 2.0316507 1.0307515 3.0431105v2.999352c0 1.0107435.9304247 1.8346521 2.0651192 1.8346521h2.0745561c1.1363478 0 2.0666347-.8239086 2.0666347-1.8346521v-3.7420532c0-1.0106071-.9302869-1.8344816-2.0666347-1.8344816h-1.155738c-1.1355555 0-2.5163313-.5349932-3.065907-1.187824-.5510222-.6541951-1.0010633-2.0138814-1.0010633-3.0228513v-3.0365621c0-1.00995908-.9298736-1.83724421-2.0665313-1.83724421l-2.07493498.00204638c-1.13555556 0-2.06522258.82523875-2.06522258 1.83519783v3.7422919c0 1.0097886.92966702 1.8362893 2.06522258 1.8362893l1.09787708-.0010914c1.1366577 0 2.5291434.5418144 3.0958707 1.2038199"/></g></g></g></svg>